<svg xmlns="http://www.w3.org/2000/svg" width="221.508" height="40.655" viewBox="0 0 221.508 40.655"><defs><style>.a{fill:#ca6144;}</style></defs><g transform="translate(-717.88 -284.632)"><g transform="translate(774.508 284.632)"><path class="a" d="M961.407,326.02c-.192.207-.286.295-.365.395a9.974,9.974,0,0,1-7.2,3.951,12.832,12.832,0,0,1-11.353-4.324,13.554,13.554,0,0,1-3.167-6.869,17.069,17.069,0,0,1,1.038-9.759,12.534,12.534,0,0,1,15.166-7.256,10.447,10.447,0,0,1,5.042,3.248c.167.191.336.381.648.733.006-.645.011-1.1.014-1.561,0-.527-.016-1.054.009-1.58a.6.6,0,0,1,.693-.67q1.737-.025,3.477,0c.466.007.629.207.66.7.014.21,0,.421,0,.632q0,10,0,19.992c0,.184,0,.368,0,.553.007,1.072.215,1.283,1.29,1.31,1.274.033,1.275.033,1.276,1.274,0,.711.007,1.423,0,2.134-.01.758-.128.878-.868.887-.684.009-1.37.007-2.054,0a4.144,4.144,0,0,1-4.169-3.2C961.5,326.459,961.474,326.309,961.407,326.02ZM961.385,316a11.05,11.05,0,0,0-1.24-5.372,8.42,8.42,0,0,0-14.774-.266,10.6,10.6,0,0,0-1.37,4.416,11.45,11.45,0,0,0,1.282,6.955,8.052,8.052,0,0,0,7.3,4.326,7.935,7.935,0,0,0,7.365-4.194A11.014,11.014,0,0,0,961.385,316Z" transform="translate(-850.186 -290.462)"/><path class="a" d="M808.932,299.705a2.233,2.233,0,0,1,.16-.269,9.46,9.46,0,0,1,6.891-3.541,10.652,10.652,0,0,1,4.07.361,9.817,9.817,0,0,1,7.139,7.967,14.339,14.339,0,0,1,.272,2.9c.026,5.242.013,10.485.013,15.727a4.207,4.207,0,0,1-.007.474c-.047.435-.218.635-.642.642q-1.739.029-3.477,0c-.462-.008-.633-.214-.666-.7-.015-.209,0-.421,0-.632,0-5.111.01-10.222-.012-15.332a8.825,8.825,0,0,0-.255-2.185,6.342,6.342,0,0,0-5.474-4.692,7.456,7.456,0,0,0-4.722.938,6.629,6.629,0,0,0-3.479,5.986c-.035,4.847-.01,9.695-.011,14.542,0,.447.012.9,0,1.343-.02.537-.183.721-.706.73q-1.659.026-3.319,0c-.537-.007-.69-.177-.723-.713-.013-.21,0-.422,0-.632q0-18.335,0-36.67c0-1.323,0-1.323,1.305-1.324.817,0,1.633,0,2.45,0,.893,0,1,.107,1,1q0,6.56,0,13.119v.854Z" transform="translate(-803.965 -284.632)"/><path class="a" d="M860.659,330.466c-4.93-.119-8.908-1.818-11.774-5.72a14.44,14.44,0,0,1-2.689-9.23A13.987,13.987,0,0,1,847.422,310a13.589,13.589,0,0,1,10.96-8.159,14.322,14.322,0,0,1,8.9,1.409,13.511,13.511,0,0,1,7.414,10.722,14.462,14.462,0,0,1-1.6,9.179,13.559,13.559,0,0,1-10.414,7.127C861.958,330.389,861.219,330.416,860.659,330.466Zm-9.611-14.435c.024.368.046.735.072,1.1.287,3.994,2.846,8.256,8.344,8.837a9.115,9.115,0,0,0,9.606-5.447,11.383,11.383,0,0,0,.795-6.03,9.2,9.2,0,0,0-8.348-8.344,9.1,9.1,0,0,0-9.08,4.509A10.965,10.965,0,0,0,851.047,316.031Z" transform="translate(-818.413 -290.459)"/><path class="a" d="M898.78,316.082a11.637,11.637,0,0,0,1.6,5.666,9.105,9.105,0,0,0,11.191,3.616,7.46,7.46,0,0,0,4.445-5.117c.237-.856.336-.921,1.214-.721.9.2,1.8.408,2.692.618.937.22,1.019.368.73,1.312a12.128,12.128,0,0,1-5.356,6.985c-7.255,4.489-18.973,1.583-21.082-9.4a14.759,14.759,0,0,1,1.478-10.11,13.255,13.255,0,0,1,10.322-7.1,13.461,13.461,0,0,1,9.509,2.058,12.085,12.085,0,0,1,5.067,6.923c.234.8.135.963-.671,1.154-.947.224-1.9.44-2.846.656-.816.185-.933.11-1.164-.708a7.42,7.42,0,0,0-6.157-5.642,8.882,8.882,0,0,0-10.467,6.7C899.018,313.987,898.943,315.046,898.78,316.082Z" transform="translate(-834.742 -290.466)"/><path class="a" d="M1010.745,309.792c-1.215.354-2.368.708-3.532,1.022-.487.131-.7-.065-.834-.67a5.013,5.013,0,0,0-3.635-3.893,6.059,6.059,0,0,0-1-.239,8.317,8.317,0,0,0-3.828.252,4.754,4.754,0,0,0-1.816,1.081,2.93,2.93,0,0,0,.612,4.653,12.313,12.313,0,0,0,3.369,1.081c1.545.326,3.108.578,4.632.981a14.868,14.868,0,0,1,3.01,1.157,6.367,6.367,0,0,1,3.5,5.384,8.176,8.176,0,0,1-5.259,8.809,13.724,13.724,0,0,1-10.186.222,8.871,8.871,0,0,1-5.953-7.178,3,3,0,0,1-.042-.392,2.289,2.289,0,0,1,.029-.3c.387-.1.786-.214,1.186-.318.765-.2,1.527-.4,2.3-.579.607-.141.787-.007.93.62.024.1.05.205.069.309a4.854,4.854,0,0,0,3.672,4.021,9.251,9.251,0,0,0,5.3.026,6.186,6.186,0,0,0,1.827-.9,3.8,3.8,0,0,0,1.358-4.165,3.367,3.367,0,0,0-1.849-2.05,14.25,14.25,0,0,0-3.531-1.1c-1.414-.31-2.836-.585-4.236-.948a14.077,14.077,0,0,1-2.371-.856c-3.056-1.411-4.144-4.1-3.807-7.2a6.9,6.9,0,0,1,3.41-5.239,11.263,11.263,0,0,1,4.989-1.616,11.8,11.8,0,0,1,7.459,1.488A8.378,8.378,0,0,1,1010.745,309.792Z" transform="translate(-867.551 -290.469)"/><path class="a" d="M1032.173,302.755H1030.8c-.975,0-1.95.012-2.924-.009-.54-.011-.712-.18-.726-.717q-.034-1.342,0-2.687c.015-.57.191-.722.8-.728,1.212-.013,2.423,0,3.635-.007.256,0,.512-.026.866-.045v-.892c0-1.9.02-3.794-.008-5.69-.015-1.073.192-1.174,1.183-1.145.737.022,1.475.022,2.212,0,.953-.028,1.166.086,1.149,1.183-.03,1.87-.009,3.741-.009,5.611v.939c.344.015.624.039.9.039,2.108,0,4.215,0,6.322,0,.907,0,1,.1,1.01.989,0,.606,0,1.212,0,1.818,0,1.336,0,1.337-1.3,1.337q-3,0-6.006,0c-.283,0-.566.024-.931.041v.838c0,4.768-.005,9.536.008,14.3a8.677,8.677,0,0,0,.17,1.721,2.465,2.465,0,0,0,2.138,2.043,8.32,8.32,0,0,0,1.332.135c1.132.018,2.265,0,3.4.01.668.007.832.172.841.848q.019,1.3,0,2.608c-.01.593-.182.8-.736.787-1.868-.035-3.737-.06-5.6-.174a6.719,6.719,0,0,1-1.979-.508,6.55,6.55,0,0,1-4.253-5.781,18.745,18.745,0,0,1-.11-2.208q-.014-6.8,0-13.593Z" transform="translate(-880.329 -286.753)"/></g><g transform="translate(717.88 284.942)"><path class="a" d="M717.88,308.68c.081-12.664,8.99-22.457,20.772-23.486a22.678,22.678,0,0,1,24.511,19.367,22.338,22.338,0,0,1-6.6,19.607,8.084,8.084,0,0,1-.877.795,2.236,2.236,0,0,1-2.981-3.318c.593-.634,1.264-1.2,1.809-1.874,4.572-5.629,5.757-11.927,3.063-18.653-2.679-6.687-7.829-10.555-15-11.395a18.191,18.191,0,0,0-20.113,16.516,17.876,17.876,0,0,0,5.638,14.915c.151.147.309.287.453.441a2.25,2.25,0,0,1,.063,3.138,2.194,2.194,0,0,1-3.127.119,20.426,20.426,0,0,1-1.952-1.954A22.261,22.261,0,0,1,717.88,308.68Z" transform="translate(-717.88 -285.103)"/><path class="a" d="M749.01,323.277a6.8,6.8,0,1,1-6.839,6.717A6.81,6.81,0,0,1,749.01,323.277Z" transform="translate(-726.192 -298.166)"/><path class="a" d="M757.916,312.575a2.248,2.248,0,0,1-1.962,2.339,2.207,2.207,0,0,1-2.44-1.67c-.066-.255-.1-.518-.15-.776a6.871,6.871,0,0,0-13.5.157c-.032.181-.057.364-.1.543a2.24,2.24,0,0,1-4.408-.785,10.978,10.978,0,0,1,.884-3.185,11.373,11.373,0,0,1,21.589,2.643C757.874,312.125,757.9,312.415,757.916,312.575Z" transform="translate(-723.852 -291.036)"/></g></g></svg>