<svg xmlns="http://www.w3.org/2000/svg" width="323.983" height="59.464" viewBox="0 0 323.983 59.464"><defs><style>.a{fill:#ca6144;}</style></defs><g transform="translate(-717.88 -284.632)"><g transform="translate(800.706 284.632)"><path class="a" d="M971.754,337.284c-.281.3-.419.431-.533.577a14.588,14.588,0,0,1-10.531,5.779c-6.522.578-12.187-1.325-16.6-6.325a19.824,19.824,0,0,1-4.632-10.047A24.967,24.967,0,0,1,940.97,313a18.333,18.333,0,0,1,22.182-10.612,15.279,15.279,0,0,1,7.375,4.75c.244.28.492.557.948,1.072.009-.944.016-1.613.02-2.283,0-.771-.024-1.542.012-2.311a.883.883,0,0,1,1.013-.98q2.541-.036,5.085,0c.682.011.92.3.965,1.019.02.307.006.616.006.925q0,14.62,0,29.24c0,.269,0,.539,0,.809.01,1.568.315,1.877,1.887,1.917,1.864.048,1.865.048,1.866,1.864,0,1.04.01,2.081,0,3.121-.015,1.108-.187,1.283-1.269,1.3-1,.013-2,.011-3,0a6.062,6.062,0,0,1-6.1-4.683C971.9,337.927,971.853,337.708,971.754,337.284Zm-.032-14.655a16.165,16.165,0,0,0-1.814-7.857,12.316,12.316,0,0,0-21.609-.389,15.507,15.507,0,0,0-2,6.459,16.746,16.746,0,0,0,1.875,10.173,11.777,11.777,0,0,0,10.683,6.328,11.607,11.607,0,0,0,10.773-6.135A16.109,16.109,0,0,0,971.722,322.629Z" transform="translate(-809.08 -285.277)"/><path class="a" d="M811.229,306.678a3.291,3.291,0,0,1,.234-.393,13.837,13.837,0,0,1,10.078-5.179,15.578,15.578,0,0,1,5.953.528c5.864,1.74,9.191,5.8,10.441,11.653a20.962,20.962,0,0,1,.4,4.246c.038,7.667.018,15.335.018,23a6.149,6.149,0,0,1-.011.693c-.069.636-.318.928-.939.939q-2.543.042-5.086,0c-.676-.012-.926-.313-.975-1.019-.022-.306-.007-.616-.007-.924,0-7.476.015-14.951-.017-22.425a12.912,12.912,0,0,0-.372-3.2,9.275,9.275,0,0,0-8.007-6.862,10.906,10.906,0,0,0-6.906,1.372,9.7,9.7,0,0,0-5.089,8.755c-.051,7.09-.015,14.18-.016,21.27,0,.654.017,1.31-.007,1.965-.029.786-.267,1.054-1.032,1.067q-2.427.038-4.855,0c-.786-.011-1.009-.259-1.057-1.043-.019-.307-.006-.617-.006-.925q0-26.818,0-53.635c0-1.935,0-1.935,1.909-1.936,1.195,0,2.389,0,3.584,0,1.306.007,1.462.157,1.462,1.46q.006,9.594,0,19.188v1.25Z" transform="translate(-803.965 -284.632)"/><path class="a" d="M867.353,343.792c-7.21-.174-13.029-2.659-17.22-8.367a21.12,21.12,0,0,1-3.933-13.5,20.46,20.46,0,0,1,1.793-8.067,19.877,19.877,0,0,1,16.03-11.933,20.948,20.948,0,0,1,13.024,2.061c6.355,3.306,9.862,8.652,10.844,15.683a21.154,21.154,0,0,1-2.343,13.426,19.831,19.831,0,0,1-15.232,10.425C869.254,343.678,868.173,343.719,867.353,343.792ZM853.3,322.679c.036.538.067,1.076.106,1.614.42,5.841,4.162,12.076,12.2,12.925a13.331,13.331,0,0,0,14.05-7.967,16.647,16.647,0,0,0,1.162-8.819c-.671-5.415-4.366-11.367-12.209-12.2a13.309,13.309,0,0,0-13.28,6.6A16.037,16.037,0,0,0,853.3,322.679Z" transform="translate(-805.564 -285.277)"/><path class="a" d="M901.034,322.744a17.019,17.019,0,0,0,2.335,8.288,13.317,13.317,0,0,0,16.369,5.289,10.911,10.911,0,0,0,6.5-7.484c.346-1.253.492-1.347,1.776-1.055,1.313.3,2.626.6,3.937.9,1.37.321,1.49.539,1.068,1.919a17.739,17.739,0,0,1-7.834,10.216c-10.61,6.566-27.75,2.316-30.834-13.753a21.588,21.588,0,0,1,2.162-14.787,19.387,19.387,0,0,1,15.1-10.38,19.69,19.69,0,0,1,13.909,3.011,17.676,17.676,0,0,1,7.41,10.126c.343,1.164.2,1.409-.981,1.688-1.385.328-2.774.644-4.162.959-1.194.271-1.364.161-1.7-1.035a10.853,10.853,0,0,0-9.006-8.252,12.991,12.991,0,0,0-15.309,9.806A45.954,45.954,0,0,0,901.034,322.744Z" transform="translate(-807.371 -285.277)"/><path class="a" d="M1020.441,313.541c-1.777.518-3.464,1.036-5.166,1.494-.712.191-1.025-.1-1.22-.98a7.332,7.332,0,0,0-5.317-5.694,8.858,8.858,0,0,0-1.458-.35,12.165,12.165,0,0,0-5.6.368,6.953,6.953,0,0,0-2.656,1.581,4.286,4.286,0,0,0,.895,6.805,18.007,18.007,0,0,0,4.928,1.582c2.259.476,4.546.846,6.775,1.435a21.748,21.748,0,0,1,4.4,1.692,9.313,9.313,0,0,1,5.12,7.875c.558,5.91-2.214,10.633-7.691,12.885a20.074,20.074,0,0,1-14.9.325,12.976,12.976,0,0,1-8.706-10.5,4.406,4.406,0,0,1-.062-.573,3.345,3.345,0,0,1,.042-.433c.566-.152,1.149-.314,1.735-.465,1.119-.288,2.234-.586,3.359-.847.888-.206,1.152-.011,1.36.907.035.15.073.3.1.451a7.1,7.1,0,0,0,5.371,5.882,13.531,13.531,0,0,0,7.753.038,9.048,9.048,0,0,0,2.672-1.312,5.556,5.556,0,0,0,1.987-6.091,4.926,4.926,0,0,0-2.7-3,20.845,20.845,0,0,0-5.165-1.613c-2.068-.453-4.149-.856-6.2-1.386a20.6,20.6,0,0,1-3.468-1.252c-4.47-2.064-6.061-6-5.569-10.533a10.091,10.091,0,0,1,4.988-7.663,16.475,16.475,0,0,1,7.3-2.363,17.252,17.252,0,0,1,10.91,2.176A12.253,12.253,0,0,1,1020.441,313.541Z" transform="translate(-811.001 -285.278)"/><path class="a" d="M1034.507,308.271h-2.015c-1.426,0-2.852.017-4.277-.013-.789-.016-1.042-.263-1.062-1.049q-.049-1.963,0-3.929c.022-.834.28-1.056,1.164-1.065,1.772-.018,3.544,0,5.317-.01.375,0,.749-.038,1.266-.066v-1.3c0-2.774.029-5.549-.012-8.323-.022-1.569.281-1.717,1.731-1.675q1.616.048,3.236,0c1.394-.041,1.706.126,1.681,1.731-.044,2.735-.012,5.472-.012,8.207v1.374c.5.022.912.057,1.321.058,3.083,0,6.164,0,9.247,0,1.327,0,1.469.146,1.478,1.446.007.886,0,1.772,0,2.658,0,1.954,0,1.955-1.9,1.956q-4.392,0-8.784,0c-.414,0-.827.036-1.362.061v1.226c0,6.974-.008,13.948.011,20.923a12.69,12.69,0,0,0,.248,2.518,3.6,3.6,0,0,0,3.127,2.987,12.151,12.151,0,0,0,1.948.2c1.656.027,3.313,0,4.969.015.978.01,1.217.252,1.23,1.24.018,1.271.02,2.543,0,3.814-.015.867-.266,1.165-1.077,1.151-2.732-.051-5.466-.088-8.192-.255a9.827,9.827,0,0,1-2.895-.744c-3.841-1.5-5.739-4.48-6.22-8.456a27.466,27.466,0,0,1-.161-3.23q-.02-9.941-.007-19.882Z" transform="translate(-812.415 -284.866)"/></g><g transform="translate(717.88 285.085)"><path class="a" d="M717.88,319.587c.118-18.523,13.149-32.846,30.381-34.351a33.17,33.17,0,0,1,35.851,28.326c1.545,11.114-1.8,20.681-9.651,28.678a11.821,11.821,0,0,1-1.283,1.162,3.27,3.27,0,0,1-4.359-4.853c.868-.928,1.848-1.759,2.646-2.741,6.688-8.233,8.421-17.445,4.48-27.282-3.918-9.78-11.451-15.438-21.937-16.666a26.607,26.607,0,0,0-29.418,24.156,26.146,26.146,0,0,0,8.246,21.815c.22.215.451.42.662.645a3.291,3.291,0,0,1,.091,4.59,3.208,3.208,0,0,1-4.573.174,29.87,29.87,0,0,1-2.855-2.859A32.561,32.561,0,0,1,717.88,319.587Z" transform="translate(-717.88 -285.103)"/><path class="a" d="M752.173,323.277a9.949,9.949,0,1,1-10,9.824A9.96,9.96,0,0,1,752.173,323.277Z" transform="translate(-718.8 -286.549)"/><path class="a" d="M768.363,317.263a3.288,3.288,0,0,1-2.87,3.42,3.228,3.228,0,0,1-3.568-2.443c-.1-.372-.143-.757-.219-1.134a10.05,10.05,0,0,0-19.752.229c-.047.265-.084.533-.148.794a3.277,3.277,0,0,1-6.447-1.148,16.062,16.062,0,0,1,1.293-4.658,16.635,16.635,0,0,1,31.576,3.866C768.3,316.6,768.334,317.028,768.363,317.263Z" transform="translate(-718.541 -285.76)"/></g></g></svg>