<svg xmlns="http://www.w3.org/2000/svg" width="356.083" height="411.33" viewBox="0 0 356.083 411.33"><defs><style>.a{fill:#7d4b34;}.b{fill:#e3d1b3;}.c,.s{fill:#b58b69;}.d{fill:#1d1d1b;}.e{fill:#22709c;}.f,.g{fill:#3c3c3b;}.ab,.ac,.g,.i,.s{opacity:0.5;}.g,.i,.k,.s{mix-blend-mode:multiply;isolation:isolate;}.h{fill:#308dc2;}.i{fill:#3f76ab;}.j,.k{fill:#ffaa6d;}.k{opacity:0.4;}.l{fill:#d7e0d7;}.m{fill:#963035;}.ac,.n{fill:#fff;}.o{fill:#f6f6f6;}.p{fill:#b7bfb7;}.q{fill:#cbd4cb;}.r{opacity:0.75;}.t{fill:#91653c;}.u{fill:#8f2d2d;}.v{fill:#ea4a49;}.w{fill:#ededed;}.x{fill:#c6c6c6;}.y{fill:#4a4a49;}.z{fill:#52c9de;}.aa{fill:#273340;}.ad{fill:#333332;}.ae{fill:#575756;}.af{fill:#dadada;}.ag{fill:#878787;}.ah{fill:#e83345;}.ai{fill:#824639;}.aj{fill:#eb9481;}.ak{fill:#98584a;}.al{fill:#b2b2b2;}.am{fill:#375d68;}.an{fill:#284952;}.ao{fill:#c22b3a;}</style></defs><g transform="translate(-780.849 -255.597)"><g transform="translate(780.849 430.448)"><path class="a" d="M794.669,340.935l-3.134-5.43,42.819-24.722,2.164,5.991Z" transform="translate(-740.221 -220.624)"/><rect class="a" width="6.27" height="52.803" transform="translate(6.213 95.947) rotate(-60)"/><path class="a" d="M832.19,334.914l-40.655-23.472,3.134-5.43,40.306,23.27Z" transform="translate(-740.221 -238.765)"/><path class="a" d="M783.779,337.419l-1.242-6.523,43.837-25.309,3.134,5.431Z" transform="translate(-774.432 -240.379)"/><g transform="translate(0 22.882)"><path class="a" d="M795.26,322.628c2.555,0,4.629,1.422,4.629,3.174s-2.075,3.174-4.629,3.174-4.629-1.421-4.629-3.174S792.706,322.628,795.26,322.628Z" transform="translate(-743.657 -198.469)"/><path class="b" d="M795.26,312.985c2.555,0,4.629,1.422,4.629,3.174s-2.075,3.174-4.629,3.174-4.629-1.421-4.629-3.174S792.706,312.985,795.26,312.985Z" transform="translate(-743.657 -235.133)"/><path class="c" d="M800.145,319.339c0-1.753,2.07-3.174,4.629-3.174s4.629,1.421,4.629,3.174-2.075,3.174-4.629,3.174S800.145,321.092,800.145,319.339Z" transform="translate(-707.483 -223.042)"/><path class="a" d="M780.849,320.661c0-1.753,2.075-3.174,4.629-3.174s4.629,1.421,4.629,3.174-2.074,3.174-4.629,3.174S780.849,322.414,780.849,320.661Z" transform="translate(-780.849 -218.016)"/><path class="b" d="M796.363,300.472c3.323,0,6.022,1.849,6.022,4.13s-2.7,4.13-6.022,4.13-6.022-1.849-6.022-4.13S793.035,300.472,796.363,300.472Z" transform="translate(-744.759 -282.709)"/><path class="b" d="M795.735,300.9c0-2.281,2.7-4.13,6.022-4.13s6.027,1.849,6.027,4.13-2.7,4.13-6.027,4.13S795.735,303.184,795.735,300.9Z" transform="translate(-724.251 -296.773)"/><path class="b" d="M784.946,300.9c0-2.281,2.7-4.13,6.022-4.13s6.026,1.849,6.026,4.13-2.7,4.13-6.026,4.13S784.946,303.184,784.946,300.9Z" transform="translate(-765.272 -296.773)"/><path class="a" d="M790.107,396.152h-9.257l19.674-98.519H812.57Z" transform="translate(-780.849 -293.505)"/><path class="a" d="M816.911,389.8h9.258l-18.387-92.171H795.735Z" transform="translate(-724.251 -293.505)"/><path class="a" d="M800.883,406.772h-9.036l-1.506-105.44h12.047Z" transform="translate(-744.761 -279.44)"/></g><ellipse class="d" cx="44.659" cy="25.784" rx="44.659" ry="25.784" transform="translate(6.945 7.521)"/><path class="c" d="M858.534,299.557c17.441,10.07,17.441,26.4,0,36.467s-45.716,10.07-63.158,0-17.441-26.4,0-36.467S841.092,289.492,858.534,299.557Z" transform="translate(-775.351 -292.008)"/></g><g transform="translate(791.896 399.22)"><path class="e" d="M813.2,330.2c-3.952,3.962-4.528,11.684-3.218,19.266,2.954,4.408,4.591,6.536,9.624,8.02a76.015,76.015,0,0,1,11.953,5.537c11.52,11.957,22.176,13.4,26.1,11.943,13.268-4.917-.956-16.289-4.812-19.084-1.119-.811-15.89-14.872-15.89-14.872l-3.5-5.542.418-12.1-19.228-5.686Z" transform="translate(-683.526 -163.183)"/><path class="f" d="M931.573,364.726c-2.536,30.056-11.948,52.679-19.386,93.06-3.515,2.8-10.742,5.354-16.164,3.534-2.905-.946-5.268-3.15-6.3-7.242-1.172-34.436-.874-61.078,8.625-83.336-28.9-12.716-67.129-16.74-90.712-36.477-9.172-7.928-16.1-15.2-18.248-22.4a14.816,14.816,0,0,1,.557-10.7,22.26,22.26,0,0,1,3.674-5.652l7.525-5.374,32.453-4.634c4.13,2.185,8.73,4.706,13.595,7.487C882.255,312.992,931.75,346.161,931.573,364.726Z" transform="translate(-762.252 -285.505)"/><path class="g" d="M897.746,460.552s-.893.312-2.31.768c-2.905-.946-5.268-3.15-6.3-7.242-1.172-34.436-.874-61.078,8.625-83.336-28.9-12.716-67.129-16.74-90.712-36.477-9.172-7.928-16.1-15.2-18.248-22.4l.557-10.7a22.253,22.253,0,0,1,3.674-5.652l7.525-5.374,32.453-4.634c4.13,2.185,8.73,4.706,13.595,7.487,2.469,30.551,32.194,52.07,65.136,72.5C899.355,393.98,895.82,426.135,897.746,460.552Z" transform="translate(-761.666 -285.505)"/><path class="e" d="M802.1,336.364c-3.952,3.957-4.053,11.213-3.218,19.261,2.954,4.408,7.218,6.973,12.246,8.457,0,0,18.373,17.494,35.867,14.872s0-15.165,0-15.165L826.83,346.295l-3.89-5.393-.168-11.376-19.223-5.686Z" transform="translate(-724.916 -139.751)"/><path class="f" d="M908.3,376.926c-2.54,30.061-19.684,59.349-27.123,99.731-6.771,5.157-12.735,6.07-17.513.629a23.456,23.456,0,0,1-3.654-5.878c-1.191-34.417,1.172-64.79,10.67-87.043-28.9-12.721-51.752-25.317-75.336-45.054-16.077-13.893-15.079-37.634-3.832-50.6l3.222-.49.61-.091,53.049,10.987c2.886,3.289,5.825,6.617,8.764,9.94,3.938,4.428,7.89,8.889,11.756,13.278C888.314,344.368,905.722,365.171,908.3,376.926Z" transform="translate(-783.15 -275.505)"/><path class="g" d="M867.041,478.472l-3.381-1.258a23.457,23.457,0,0,1-3.654-5.878c-1.191-34.417,1.172-64.79,10.67-87.043-28.9-12.721-51.752-25.317-75.336-45.054-16.077-13.893-15.079-37.634-3.832-50.6l3.222-.49,62.423,20.836c3.938,4.428,7.89,8.889,11.756,13.278-6.786,1.052-21.691,1.4-52.732,1.032,11.06,23.338,36.986,43.181,68.675,56.881C870.239,405.148,866.637,440,867.041,478.472Z" transform="translate(-783.15 -275.433)"/></g><path class="h" d="M880.624,378.569c-4.269-2.031-7.242-.245-9.187,4.653-.61-.331-1.205-.682-1.8-1.032-16.131-9.22-31.07-21.273-46.173-35.5L815.3,318.331l-10.2-35.358-5.811-10.762,10.185-7.732c15.132-2.257,20.068,4.793,23.458,21.254L846.8,335.321C858.4,345.117,869.67,360.076,880.624,378.569Z" transform="translate(70.096 32.215)"/><path class="i" d="M856.96,358.109c-16.13-9.22-31.069-21.273-46.172-35.5l-8.168-28.361L814.8,270.4c2.992,19.842,11.232,33.788,12,51.613Z" transform="translate(82.772 56.295)"/><path class="d" d="M812,259.585c-30.085,9.777-23.67,38.177-15.545,60.435l21.235-19.977Z" transform="translate(33.585 15.164)"/><path class="h" d="M887.66,334.766a2.842,2.842,0,0,1-.034.543c-.735,17.3-24.3,15.693-24.3,15.693l-9.532,20.7c-2.415,30.042-54.327,37.62-68.9,6.127,10.5-14.872,10.5-14.872,11.371-25.091-.821-2.728-1.537-5.369-2.132-7.943-4.706-20.155-2.483-35.449,6.209-52.7,8.524-11.04,27.646-22.095,39.7-26.575l35.252-.821,7.016,25.576C880.419,322.362,887.872,321.262,887.66,334.766Z" transform="translate(15.364 34.604)"/><path class="j" d="M801.813,263.624c-1.911,6.574-7.05,16.736-8.3,23-1.436,7.727,12.812,19.741,22.354,19.045,6.757-1.33,8.476-10,9.47-17.974Z" transform="translate(47.755 30.52)"/><path class="k" d="M796.681,264.669s-5.619,46.22,16.6,42.408c14.488-2.488,11.439-26.388,11.439-26.388Z" transform="translate(57.785 34.494)"/><path class="j" d="M819.641,256.11c22.258,3.078,29.134,16.14,26.911,33.855-.264,14.858-12.615,34.523-21.254,34.158-12.3.677-18.354-13.686-28.871-29.048C788.3,269.8,798.925,253.243,819.641,256.11Z" transform="translate(48.827 0.727)"/><path class="d" d="M848.38,291.186c-4.629,4.956-12.044,7.76-21.283,9.888-7.808,3.222-15.372,2.9-18.387,7.27l-9.042-3.746c-9.086-10.454-9.984-40.348,5.594-46.667C830.276,247.785,860,272.9,848.38,291.186Z" transform="translate(46.697 0)"/><path class="j" d="M803.822,271.21c-1.374-5.45-5.167-9.018-8.4-5.883-1.508,1.46-1.407,4.144,0,7.558,1.095,2.665,2.776,3.895,4.855,4.212C803.337,277.563,804.878,275.412,803.822,271.21Z" transform="translate(51.254 32.543)"/><path class="i" d="M887.627,289.653c-.735,17.3-24.3,15.693-24.3,15.693l-9.532,20.7c-2.415,30.042-54.327,37.62-68.9,6.128,10.5-14.872,10.5-14.872,11.371-25.091-.821-2.727-1.537-5.369-2.132-7.943l20.942-22.431,12.092,27.19c9.8,21.134,32.818,12.087,34.71-4.932C865.229,304.352,882.781,303.074,887.627,289.653Z" transform="translate(15.364 80.26)"/><g transform="translate(860.621 412.217)"><path class="d" d="M831,337.229c-22.008,12.711-22.008,33.312,0,46.024s57.7,12.706,79.706,0,22.013-33.312,0-46.024S853.013,324.523,831,337.229Z" transform="translate(-732.699 -138.074)"/><path class="c" d="M831,336.047c-22.008,12.711-22.008,33.312,0,46.023s57.7,12.707,79.706,0,22.013-33.312,0-46.023S853.013,323.341,831,336.047Z" transform="translate(-732.699 -142.568)"/><path class="d" d="M828.051,334.213c-8.389,4.841-8.389,12.687,0,17.533s21.979,4.84,30.364,0,8.389-12.692,0-17.533S836.435,329.368,828.051,334.213Z" transform="translate(-705.077 -127.124)"/><path class="c" d="M828.051,333.076c-8.389,4.841-8.389,12.687,0,17.533s21.979,4.84,30.364,0,8.389-12.692,0-17.533S836.435,328.236,828.051,333.076Z" transform="translate(-705.077 -131.433)"/><path class="d" d="M827.625,331.982c-6.44,3.722-6.44,9.753,0,13.47s16.889,3.722,23.329,0,6.444-9.748,0-13.47S834.069,328.265,827.625,331.982Z" transform="translate(-701.135 -132.389)"/><rect class="d" width="32.992" height="108.398" transform="translate(121.659 98.69)"/><path class="d" d="M837.925,313.226c-53.952,31.147-53.952,81.655,0,112.8s141.427,31.152,195.379,0,53.957-81.655,0-112.8S891.882,282.075,837.925,313.226Z" transform="translate(-797.461 -281.934)"/><ellipse class="l" cx="138.155" cy="79.766" rx="138.155" ry="79.766" transform="translate(0.001)"/><ellipse class="c" cx="138.155" cy="79.766" rx="138.155" ry="79.766" transform="translate(0.001)"/></g><g transform="translate(918.195 484.616)"><g transform="translate(0 2.225)"><path class="f" d="M873.807,335.72c-2.709,3.5-5.744,4.96-8.99,5.186l-48.689-28.112,8.989-5.186Z" transform="translate(-784.056 -289.088)"/><path class="f" d="M891.6,336.632l-33.462,19.32L809.45,327.841v-1.078l33.462-18.242L891.6,335.554Z" transform="translate(-809.45 -285.614)"/><path class="f" d="M899.863,331.863,866.4,351.183V350.1l-48.688-27.033,33.462-19.32,48.689,27.033Z" transform="translate(-778.037 -303.751)"/></g><g transform="translate(0 1.147)"><path class="f" d="M873.8,335.495l-8.985,5.187L816.13,312.571l8.986-5.187Z" transform="translate(-784.054 -288.864)"/><path class="m" d="M891.6,336.408l-33.462,19.32L809.45,327.617l33.462-19.32Z" transform="translate(-809.45 -285.39)"/><path class="m" d="M899.863,331.638,866.4,350.959l-48.688-28.111,33.462-19.32Z" transform="translate(-778.037 -303.527)"/></g><g transform="translate(3.504)"><path class="n" d="M896.1,329.349l-45.137-26.06-33.47,22.54,45.138,26.06Z" transform="translate(-782.357 -303.287)"/><g transform="translate(0.001)"><path class="n" d="M850.964,303.288l-28.65,14.459a9.972,9.972,0,0,0-4.816,8.029c0,.053,35.137-20.236,35.137-20.236Z" transform="translate(-782.356 -303.288)"/><path class="o" d="M811.851,326.7,840.5,308.08a3.356,3.356,0,0,1,3.486-.485,3.2,3.2,0,0,1,1.335,2.948c0,.053-35.142,20.342-35.142,20.342Z" transform="translate(-810.18 -288.055)"/><path class="o" d="M887.8,333.417l-45.138-26.06-32.137,19.107,45.137,26.061Z" transform="translate(-808.858 -287.816)"/></g><path class="p" d="M811.852,311.336l-1.672,4.183,45.138,26.06,1.672-4.182Z" transform="translate(-810.18 -272.688)"/><path class="q" d="M860.368,308.715l-28.654,14.459A9.971,9.971,0,0,0,826.9,331.2c0,.058,35.142-20.231,35.142-20.231Z" transform="translate(-746.619 -282.654)"/><path class="q" d="M821.25,332.131,849.9,313.509a3.346,3.346,0,0,1,3.487-.485,3.193,3.193,0,0,1,1.33,2.944c0,.058-35.142,20.346-35.142,20.346Z" transform="translate(-774.443 -267.423)"/></g><g class="r" transform="translate(45.983 4.104)"><path class="f" d="M827.219,322.659c.13-.034,26.916-13.576,26.916-13.576a.293.293,0,0,0,.125-.389.289.289,0,0,0-.389-.129l-26.787,13.547a.291.291,0,0,0-.125.389A.287.287,0,0,0,827.219,322.659Z" transform="translate(-788.978 -287.448)"/><path class="f" d="M826.856,322.45c.13-.034,26.921-13.576,26.921-13.576a.291.291,0,0,0-.264-.519L826.726,321.9a.286.286,0,0,0-.125.389A.28.28,0,0,0,826.856,322.45Z" transform="translate(-790.343 -288.242)"/><path class="f" d="M826.5,322.241c.13-.034,26.916-13.58,26.916-13.58a.289.289,0,0,0,.129-.389.292.292,0,0,0-.389-.125l-26.786,13.542a.3.3,0,0,0-.129.394A.291.291,0,0,0,826.5,322.241Z" transform="translate(-791.709 -289.037)"/><path class="f" d="M826.141,322.027c.13-.029,26.916-13.576,26.916-13.576a.289.289,0,0,0,.13-.389.294.294,0,0,0-.389-.125L826.011,321.48a.289.289,0,0,0,.13.547Z" transform="translate(-793.076 -289.831)"/><path class="f" d="M825.782,319.02c.13-.029,19.885-10.041,19.885-10.041a.289.289,0,1,0-.264-.514l-19.751,10.007a.289.289,0,0,0,.13.547Z" transform="translate(-794.441 -287.828)"/><path class="f" d="M825.423,321.61c.13-.029,26.916-13.576,26.916-13.576a.291.291,0,0,0,.125-.389.287.287,0,0,0-.389-.125l-26.786,13.542a.291.291,0,0,0-.125.389A.288.288,0,0,0,825.423,321.61Z" transform="translate(-795.806 -291.421)"/><path class="f" d="M825.06,321.4c.129-.029,26.916-13.576,26.916-13.576a.289.289,0,0,0,.13-.389.3.3,0,0,0-.389-.13L824.93,320.855a.287.287,0,0,0-.125.389A.279.279,0,0,0,825.06,321.4Z" transform="translate(-797.171 -292.217)"/><path class="f" d="M824.7,321.193c.129-.029,26.916-13.576,26.916-13.576a.289.289,0,0,0,.13-.389.3.3,0,0,0-.389-.13l-26.787,13.547a.289.289,0,0,0,.13.547Z" transform="translate(-798.538 -293.012)"/><path class="f" d="M824.345,320.986c.13-.034,26.916-13.576,26.916-13.576a.289.289,0,0,0,.13-.389.3.3,0,0,0-.394-.13l-26.781,13.547a.289.289,0,0,0-.13.389A.293.293,0,0,0,824.345,320.986Z" transform="translate(-799.905 -293.809)"/><path class="f" d="M823.986,320.777c.13-.034,26.916-13.576,26.916-13.576a.291.291,0,0,0-.264-.519L823.856,320.23a.289.289,0,0,0-.13.389A.292.292,0,0,0,823.986,320.777Z" transform="translate(-801.27 -294.603)"/><path class="f" d="M823.627,320.57c.13-.034,26.916-13.576,26.916-13.576a.292.292,0,0,0,.125-.389.281.281,0,0,0-.384-.13L823.5,320.022a.289.289,0,0,0,.13.548Z" transform="translate(-802.635 -295.399)"/><path class="f" d="M823.264,320.36c.13-.034,26.916-13.576,26.916-13.576a.29.29,0,0,0,.129-.389.285.285,0,0,0-.389-.13l-26.786,13.542a.292.292,0,0,0-.125.394A.28.28,0,0,0,823.264,320.36Z" transform="translate(-804 -296.194)"/><path class="f" d="M822.906,320.152c.13-.034,26.916-13.58,26.916-13.58a.292.292,0,0,0,.129-.389.287.287,0,0,0-.389-.125L822.777,319.6a.3.3,0,0,0-.129.394A.292.292,0,0,0,822.906,320.152Z" transform="translate(-805.367 -296.989)"/><path class="f" d="M822.549,318.539c.13-.029,23.463-11.809,23.463-11.809a.289.289,0,0,0,.129-.389.283.283,0,0,0-.389-.125l-23.334,11.775a.289.289,0,0,0,.13.547Z" transform="translate(-806.733 -296.385)"/><path class="f" d="M822.19,316.645c.129-.029,19.261-9.681,19.261-9.681a.291.291,0,0,0,.13-.389.287.287,0,0,0-.389-.125L822.06,316.1a.289.289,0,0,0,.13.547Z" transform="translate(-808.098 -295.494)"/><path class="f" d="M821.831,319.521c.129-.029,26.911-13.576,26.911-13.576a.289.289,0,0,0,.129-.389.283.283,0,0,0-.389-.125L821.7,318.973a.289.289,0,0,0-.13.389A.293.293,0,0,0,821.831,319.521Z" transform="translate(-809.464 -299.373)"/><path class="f" d="M821.468,319.313c.129-.029,26.916-13.576,26.916-13.576a.29.29,0,0,0-.259-.519l-26.786,13.547a.287.287,0,0,0-.125.389A.28.28,0,0,0,821.468,319.313Z" transform="translate(-810.829 -300.169)"/><path class="f" d="M821.11,319.106c.13-.029,26.916-13.576,26.916-13.576a.293.293,0,0,0,.13-.389.286.286,0,0,0-.389-.13l-26.786,13.547a.289.289,0,0,0,.13.547Z" transform="translate(-812.195 -300.966)"/><path class="f" d="M820.753,318.895c.129-.034,26.916-13.576,26.916-13.576a.291.291,0,0,0,.125-.389.283.283,0,0,0-.384-.13l-26.786,13.547a.289.289,0,0,0-.129.389A.292.292,0,0,0,820.753,318.895Z" transform="translate(-813.562 -301.759)"/><path class="f" d="M820.394,315.315c.13-.034,18.407-9.321,18.407-9.321a.288.288,0,1,0-.26-.514l-18.277,9.287a.289.289,0,0,0-.13.389A.293.293,0,0,0,820.394,315.315Z" transform="translate(-814.927 -299.183)"/><path class="f" d="M820.032,315.941c.13-.034,20.462-10.373,20.462-10.373a.29.29,0,1,0-.259-.519L819.9,315.393a.289.289,0,0,0,.13.547Z" transform="translate(-816.294 -300.812)"/><path class="f" d="M819.675,318.268c.13-.034,26.916-13.576,26.916-13.576a.29.29,0,1,0-.259-.519L819.546,317.72a.287.287,0,0,0-.13.389A.292.292,0,0,0,819.675,318.268Z" transform="translate(-817.661 -304.143)"/><path class="f" d="M819.316,316.11c.13-.034,22.066-11.117,22.066-11.117a.288.288,0,1,0-.259-.514l-21.936,11.079a.294.294,0,0,0-.13.394A.3.3,0,0,0,819.316,316.11Z" transform="translate(-819.026 -302.989)"/></g><g class="r" transform="translate(11.234 21.946)"><path class="f" d="M820.028,324.962a.306.306,0,0,0,.159-.048L836.629,314.2a.3.3,0,0,0,.087-.4.3.3,0,0,0-.4-.086L819.87,324.429a.292.292,0,0,0,.158.533Z" transform="translate(-781.56 -285.773)"/><path class="f" d="M819.67,327.158a.288.288,0,0,0,.158-.048l21.163-13.753a.29.29,0,0,0-.317-.485l-21.163,13.753a.288.288,0,0,0-.087.4A.3.3,0,0,0,819.67,327.158Z" transform="translate(-782.935 -288.972)"/><path class="f" d="M819.307,329.167a.269.269,0,0,0,.158-.048l25.47-16.553a.29.29,0,0,0-.317-.485l-25.471,16.553a.288.288,0,0,0-.082.4A.293.293,0,0,0,819.307,329.167Z" transform="translate(-784.31 -291.984)"/><path class="f" d="M818.947,328.956a.314.314,0,0,0,.158-.043l25.466-16.558a.288.288,0,0,0,.086-.4.294.294,0,0,0-.4-.086l-25.466,16.553a.294.294,0,0,0-.087.4A.29.29,0,0,0,818.947,328.956Z" transform="translate(-785.684 -292.778)"/><path class="f" d="M818.586,328.746a.3.3,0,0,0,.154-.043l25.47-16.553a.294.294,0,0,0,.086-.4.3.3,0,0,0-.4-.086l-25.466,16.558a.286.286,0,0,0,.158.528Z" transform="translate(-787.057 -293.571)"/><path class="f" d="M818.221,328.541a.268.268,0,0,0,.159-.048l25.466-16.553a.289.289,0,0,0,.086-.4.285.285,0,0,0-.4-.086l-25.47,16.553a.292.292,0,0,0,.158.533Z" transform="translate(-788.43 -294.364)"/><path class="f" d="M817.863,328.33a.278.278,0,0,0,.158-.048l25.466-16.553a.288.288,0,0,0,.086-.4.293.293,0,0,0-.4-.086L817.7,327.8a.294.294,0,0,0-.086.4A.3.3,0,0,0,817.863,328.33Z" transform="translate(-789.806 -295.158)"/><path class="f" d="M817.5,323.287a.328.328,0,0,0,.159-.043L833.8,312.795a.294.294,0,0,0,.086-.4.3.3,0,0,0-.4-.086l-16.135,10.449a.294.294,0,0,0-.087.4A.289.289,0,0,0,817.5,323.287Z" transform="translate(-791.178 -291.118)"/><path class="f" d="M817.14,327.916a.321.321,0,0,0,.158-.048l25.47-16.553a.292.292,0,0,0-.317-.49l-25.47,16.558a.288.288,0,0,0-.086.4A.294.294,0,0,0,817.14,327.916Z" transform="translate(-792.554 -296.746)"/><path class="f" d="M816.778,327.707a.279.279,0,0,0,.159-.048L842.4,311.106a.294.294,0,0,0,.086-.4.3.3,0,0,0-.4-.086L816.62,327.174a.287.287,0,0,0-.086.4A.293.293,0,0,0,816.778,327.707Z" transform="translate(-793.927 -297.54)"/><path class="f" d="M816.413,327.5a.267.267,0,0,0,.158-.048L842.042,310.9a.288.288,0,0,0,.087-.4.291.291,0,0,0-.4-.086l-25.47,16.553a.292.292,0,0,0,.158.533Z" transform="translate(-795.3 -298.334)"/><path class="f" d="M816.053,327.287a.3.3,0,0,0,.158-.043l25.466-16.558a.288.288,0,0,0,.086-.4.293.293,0,0,0-.4-.086l-25.465,16.553a.293.293,0,0,0-.081.4A.28.28,0,0,0,816.053,327.287Z" transform="translate(-796.674 -299.127)"/><path class="f" d="M815.694,327.076a.33.33,0,0,0,.159-.043l25.465-16.553a.294.294,0,0,0,.087-.4.3.3,0,0,0-.4-.086l-25.465,16.553a.294.294,0,0,0-.087.4A.288.288,0,0,0,815.694,327.076Z" transform="translate(-798.049 -299.92)"/><path class="f" d="M815.332,326.871a.279.279,0,0,0,.159-.048l25.471-16.553a.292.292,0,0,0,.081-.4.286.286,0,0,0-.4-.082l-25.47,16.553a.288.288,0,0,0-.086.4A.293.293,0,0,0,815.332,326.871Z" transform="translate(-799.425 -300.714)"/><path class="f" d="M814.972,326.662a.278.278,0,0,0,.158-.048L840.6,310.061a.29.29,0,1,0-.317-.485l-25.466,16.553a.288.288,0,0,0-.086.4A.293.293,0,0,0,814.972,326.662Z" transform="translate(-800.798 -301.509)"/><path class="f" d="M814.606,318.724a.268.268,0,0,0,.158-.048l10.488-6.79a.3.3,0,0,0,.087-.4.3.3,0,0,0-.4-.086l-10.488,6.8a.3.3,0,0,0-.082.4A.3.3,0,0,0,814.606,318.724Z" transform="translate(-802.17 -294.575)"/><path class="f" d="M814.246,320.966a.3.3,0,0,0,.159-.043l15.271-9.892a.29.29,0,1,0-.317-.485l-15.271,9.888a.293.293,0,0,0-.081.4A.281.281,0,0,0,814.246,320.966Z" transform="translate(-803.544 -297.82)"/><path class="f" d="M813.888,326.032a.326.326,0,0,0,.158-.043l25.466-16.553a.294.294,0,0,0,.086-.4.3.3,0,0,0-.4-.086L813.729,325.5a.286.286,0,0,0,.158.528Z" transform="translate(-804.919 -303.89)"/><path class="f" d="M813.527,325.826a.289.289,0,0,0,.158-.048l25.466-16.553a.291.291,0,0,0,.082-.4.283.283,0,0,0-.4-.086l-25.47,16.553a.291.291,0,0,0-.082.4A.294.294,0,0,0,813.527,325.826Z" transform="translate(-806.292 -304.683)"/><path class="f" d="M813.165,325.615a.276.276,0,0,0,.158-.048l25.471-16.553a.29.29,0,0,0-.317-.485l-25.471,16.553a.293.293,0,0,0-.086.4A.3.3,0,0,0,813.165,325.615Z" transform="translate(-807.668 -305.475)"/><path class="f" d="M812.8,325.406a.33.33,0,0,0,.158-.043l25.466-16.553a.294.294,0,0,0,.086-.4.3.3,0,0,0-.4-.086l-25.466,16.553a.3.3,0,0,0-.086.4A.289.289,0,0,0,812.8,325.406Z" transform="translate(-809.04 -306.27)"/><path class="f" d="M812.439,319.058a.3.3,0,0,0,.158-.043l13.585-8.8a.282.282,0,0,0,.082-.4.288.288,0,0,0-.4-.086l-13.585,8.8a.287.287,0,0,0-.081.4A.281.281,0,0,0,812.439,319.058Z" transform="translate(-810.414 -300.926)"/><path class="f" d="M812.081,324.992a.278.278,0,0,0,.158-.048L837.7,308.391a.29.29,0,1,0-.317-.485l-25.466,16.553a.288.288,0,0,0-.086.4A.294.294,0,0,0,812.081,324.992Z" transform="translate(-811.79 -307.858)"/></g></g><g transform="translate(1026.193 352.644)"><path class="s" d="M878.594,298.621c10.67,5.282,10.67,13.854,0,19.141s-27.978,5.287-38.648,0-10.675-13.859,0-19.141S867.924,293.333,878.594,298.621Z" transform="translate(-831.94 -204.138)"/><rect class="t" width="51.791" height="5.323" transform="translate(27.675 103.249)"/><path class="u" d="M881.914,299.681c10.108,5.84,10.108,15.3,0,21.144s-26.513,5.839-36.626,0-10.113-15.3,0-21.144S871.8,293.842,881.914,299.681Z" transform="translate(-810.029 -201.679)"/><path class="v" d="M845.284,321.056a25.943,25.943,0,0,0,3.434,1.762c10.109,4.336,24.155,3.741,33.2-1.762,10.109-6.171,10.109-16.169,0-22.32-10.127-6.171-26.513-6.171-36.635,0a19.211,19.211,0,0,0-4.461,3.65C835.5,308.359,836.991,316,845.284,321.056Z" transform="translate(-810.03 -206.222)"/><path class="w" d="M845.111,298.02c1.316.764,1.316,1.993,0,2.756a5.28,5.28,0,0,1-4.769,0c-1.315-.763-1.315-1.993,0-2.756A5.28,5.28,0,0,1,845.111,298.02Z" transform="translate(-803.744 -193.51)"/><path class="u" d="M843.563,297.922a1.008,1.008,0,0,1,0,1.911,3.653,3.653,0,0,1-3.308,0,1.009,1.009,0,0,1,0-1.911A3.652,3.652,0,0,1,843.563,297.922Z" transform="translate(-802.927 -193.225)"/><path class="u" d="M843.734,297.307h-3.646l-.518,2.4h4.682Z" transform="translate(-802.928 -194.057)"/><path class="u" d="M842.79,297.4a.786.786,0,0,1,0,1.489,2.868,2.868,0,0,1-2.579,0,.786.786,0,0,1,0-1.489A2.839,2.839,0,0,1,842.79,297.4Z" transform="translate(-802.518 -194.89)"/><rect class="t" width="7.465" height="37.674" transform="translate(5.85 27.245) rotate(-60.552)"/><path class="d" d="M869.587,358.313c0,1.791-3.808,1.594-3.731,0V298.118a15.672,15.672,0,0,0-23.507-13.571l-2.012,1.167-1.868-3.232,2.017-1.167a19.4,19.4,0,0,1,29.1,16.8Z" transform="translate(-807.115 -264.704)"/><path class="u" d="M865.645,293.691c4.322,7.314.937,13.311-7.559,13.393s-18.882-5.782-23.2-13.1-.932-13.311,7.563-13.393S861.328,286.378,865.645,293.691Z" transform="translate(-827.865 -257.598)"/><path class="v" d="M867.963,299.343l-2.2-12.558-14.747-8.322-11.535,4.5c-.331.091-.644.2-.951.312l-.245.077c-4.706,1.95-6.017,6.824-2.665,12.5,4.317,7.314,14.7,13.177,23.2,13.1C865.783,308.885,869.3,304.836,867.963,299.343Z" transform="translate(-825.074 -265.703)"/><path class="u" d="M843.959,276.283l-6.511,11.535c-.639,1.138-.533,2.694.48,4.408a13.776,13.776,0,0,0,10.858,6.128c1.988-.019,3.381-.73,4.019-1.863l6.516-11.539Z" transform="translate(-812.518 -273.992)"/><path class="v" d="M853.734,281.939c2.022,3.424.437,6.228-3.539,6.267a13.784,13.784,0,0,1-10.862-6.128c-2.022-3.424-.437-6.233,3.539-6.272A13.79,13.79,0,0,1,853.734,281.939Z" transform="translate(-807.172 -275.806)"/><path class="u" d="M845.392,278.658c.759,1.287.163,2.343-1.33,2.358a5.182,5.182,0,0,1-4.082-2.3c-.759-1.287-.163-2.344,1.33-2.358A5.181,5.181,0,0,1,845.392,278.658Z" transform="translate(-802.623 -273.726)"/></g><g transform="translate(1000.465 466.555)"><path class="x" d="M826.965,310.98l2.089,1.207,25.335,14.627,18.443-10.649-27.425-15.834-15.494,8.945-.672.388-2.033,1.174Z" transform="translate(-825.126 -296.465)"/><path class="n" d="M826.965,310.9l27.424,15.833,18.443-10.648-27.424-15.834Z" transform="translate(-825.126 -296.761)"/><path class="x" d="M826.965,310.831l27.424,15.834,18.443-10.649-27.424-15.834Z" transform="translate(-825.126 -297.032)"/><path class="n" d="M826.965,310.753l27.424,15.834,18.443-10.649-27.424-15.833Z" transform="translate(-825.126 -297.328)"/><path class="x" d="M826.965,310.683l27.424,15.833,18.443-10.649-27.424-15.833Z" transform="translate(-825.126 -297.599)"/><path class="n" d="M826.965,310.6l27.424,15.834,18.443-10.648-27.424-15.834Z" transform="translate(-825.126 -297.895)"/><path class="x" d="M826.965,310.534l27.424,15.834,18.443-10.648-27.424-15.834Z" transform="translate(-825.126 -298.166)"/><path class="n" d="M826.965,310.455l27.424,15.834,18.443-10.648-27.424-15.834Z" transform="translate(-825.126 -298.462)"/><path class="x" d="M826.965,310.384l27.424,15.834,18.443-10.648-27.424-15.833Z" transform="translate(-825.126 -298.733)"/><path class="n" d="M826.965,310.309l22.33,12.889a22.219,22.219,0,0,0,4.812,2.07l.284.086L872.83,314.7a22.142,22.142,0,0,1-5.086-2.151L845.41,299.658Z" transform="translate(-825.126 -299.029)"/><g transform="translate(0 9.628)"><path class="f" d="M826.582,302.014a5.007,5.007,0,0,0,2.3,3.967,2.224,2.224,0,0,0,1.124.336,1.454,1.454,0,0,0,.509-.086l-2.089-1.205.245-.144a4.419,4.419,0,0,1-1.33-2.732l-.745-.25Z" transform="translate(-826.582 -300.137)"/><path class="f" d="M828.87,302.516a1.582,1.582,0,0,0-.754-.235c-.495,0-.792.418-.792,1.129,0,.13-.74-.12-.74-.12.043-1.052.644-1.757,1.532-1.757a2.271,2.271,0,0,1,1.124.336,4.414,4.414,0,0,1,1.239,1.124l-.783.23A2.519,2.519,0,0,0,828.87,302.516Z" transform="translate(-826.574 -301.532)"/><path class="f" d="M827.346,301.873a.193.193,0,0,0,0,.365.713.713,0,0,0,.624,0,.193.193,0,0,0,0-.365A.712.712,0,0,0,827.346,301.873Z" transform="translate(-824.172 -300.509)"/></g><path class="f" d="M826.584,303.29c.043-1.052.644-1.757,1.532-1.757a2.271,2.271,0,0,1,1.124.336,4.317,4.317,0,0,1,1.225,1.109.192.192,0,0,1-.092.283.713.713,0,0,1-.624,0,3.061,3.061,0,0,0-.879-.744,1.582,1.582,0,0,0-.754-.235c-.495,0-.792.418-.792,1.129C827.329,303.539,826.584,303.29,826.584,303.29Z" transform="translate(-826.574 -291.904)"/><g transform="translate(2.113)"><path class="f" d="M827.022,303.044c.043-1.056.644-1.762,1.527-1.762a2.263,2.263,0,0,1,1.129.341,4.236,4.236,0,0,1,1.224,1.109.19.19,0,0,1-.091.278.691.691,0,0,1-.629,0,3.08,3.08,0,0,0-.879-.744,1.569,1.569,0,0,0-.754-.235c-.494,0-.787.423-.787,1.129C827.767,303.294,827.022,303.044,827.022,303.044Z" transform="translate(-827.022 -292.854)"/><path class="f" d="M827.456,302.79c.044-1.056.644-1.758,1.527-1.758a2.253,2.253,0,0,1,1.128.336,3.625,3.625,0,0,1,1.224,1.109c.067.1.029.207-.1.278a.617.617,0,0,1-.624,0,7.334,7.334,0,0,0-.879-.739,1.53,1.53,0,0,0-.754-.24c-.494,0-.807.422-.787,1.129C828.2,303.039,827.456,302.79,827.456,302.79Z" transform="translate(-825.372 -293.805)"/><path class="f" d="M827.89,302.539c.043-1.056.643-1.758,1.527-1.758a2.251,2.251,0,0,1,1.128.336,3.678,3.678,0,0,1,1.225,1.109c.067.1.029.207-.1.279a.607.607,0,0,1-.624,0,7.8,7.8,0,0,0-.879-.74,1.529,1.529,0,0,0-.754-.24c-.495,0-.807.423-.787,1.129C828.63,302.788,827.89,302.539,827.89,302.539Z" transform="translate(-823.722 -294.759)"/><path class="f" d="M828.324,302.288c.044-1.052.644-1.758,1.528-1.758a2.3,2.3,0,0,1,1.128.336,3.78,3.78,0,0,1,1.224,1.109c.067.1.029.211-.1.279a.607.607,0,0,1-.624,0,7.783,7.783,0,0,0-.879-.74,1.568,1.568,0,0,0-.754-.235c-.495,0-.807.418-.788,1.124C829.064,302.537,828.324,302.288,828.324,302.288Z" transform="translate(-822.072 -295.714)"/><path class="f" d="M828.758,302.037c.043-1.052.643-1.757,1.527-1.757a2.3,2.3,0,0,1,1.128.336,3.77,3.77,0,0,1,1.224,1.109c.068.1.029.211-.1.283a.629.629,0,0,1-.624,0,7.921,7.921,0,0,0-.879-.744,1.567,1.567,0,0,0-.754-.235c-.495,0-.807.423-.788,1.129C829.5,302.291,828.758,302.037,828.758,302.037Z" transform="translate(-820.422 -296.668)"/><path class="f" d="M829.192,301.79c.043-1.057.639-1.762,1.527-1.762a2.26,2.26,0,0,1,1.128.341,3.676,3.676,0,0,1,1.225,1.109c.067.1.029.206-.1.279a.617.617,0,0,1-.624,0,7.925,7.925,0,0,0-.879-.744,1.568,1.568,0,0,0-.754-.235c-.495,0-.807.423-.788,1.129C829.932,302.04,829.192,301.79,829.192,301.79Z" transform="translate(-818.771 -297.622)"/><path class="f" d="M829.626,301.54c.038-1.057.639-1.762,1.527-1.762a2.263,2.263,0,0,1,1.129.341,3.674,3.674,0,0,1,1.224,1.109c.067.1.029.206-.1.278a.618.618,0,0,1-.624,0,7.911,7.911,0,0,0-.879-.744,1.57,1.57,0,0,0-.754-.235c-.495,0-.806.423-.792,1.128C830.366,301.789,829.626,301.54,829.626,301.54Z" transform="translate(-817.121 -298.577)"/><path class="f" d="M830.059,301.285c.043-1.056.643-1.758,1.532-1.758a2.252,2.252,0,0,1,1.128.336,4.439,4.439,0,0,1,1.225,1.109.192.192,0,0,1-.1.278.681.681,0,0,1-.624,0,2.979,2.979,0,0,0-.879-.74,1.528,1.528,0,0,0-.754-.24c-.495,0-.792.423-.792,1.128C830.808,301.534,830.059,301.285,830.059,301.285Z" transform="translate(-815.475 -299.527)"/></g></g><g transform="translate(881.348 487.46)"><path class="y" d="M839.978,318.9l-12.64,7.295a1.251,1.251,0,0,1-1.123,0l-24.2-13.974a.341.341,0,0,1,0-.648l12.639-7.3a1.241,1.241,0,0,1,1.119,0l24.208,13.979A.343.343,0,0,1,839.978,318.9Z" transform="translate(-801.777 -302.888)"/><path class="y" d="M801.778,305.5v1.256l38.431,6.7,0-1.252-38.429-6.7Z" transform="translate(-801.776 -297.741)"/><path class="d" d="M839.978,318.636l-12.64,7.3a1.25,1.25,0,0,1-1.123,0l-24.2-13.979a.387.387,0,0,1-.235-.322.4.4,0,0,1,.235-.326l12.639-7.295a1.241,1.241,0,0,1,1.119,0l24.208,13.974A.343.343,0,0,1,839.978,318.636Z" transform="translate(-801.777 -303.88)"/><path class="z" d="M824.059,323.889l-21.777-12.572,5.6-3.241L809.748,307l2.867-1.657,1.037-.6.994-.576,21.782,12.577Z" transform="translate(-799.861 -302.775)"/><g transform="translate(5.295 3.053)"><path class="n" d="M807.367,305.308l-3.121,1.8a.49.49,0,0,1-.461,0l-.812-.466a.143.143,0,0,1,0-.269l3.122-1.8a.5.5,0,0,1,.466,0l.807.466C807.5,305.116,807.5,305.232,807.367,305.308Z" transform="translate(-802.879 -304.516)"/><path class="y" d="M803.965,306.966a.245.245,0,0,1-.231,0l-.812-.466c0-.135,3.122-1.935,3.122-1.935a.255.255,0,0,1,.235,0l.807.466C807.086,305.165,803.965,306.966,803.965,306.966Z" transform="translate(-802.715 -304.44)"/></g><g transform="translate(26.101 17.166)"><g transform="translate(3.663)"><path class="aa" d="M808.916,308.1c-.053.144-.139.144-.192.11l-.749-.432c.053-.144.14-.144.192-.11Z" transform="translate(-807.975 -306.716)"/><path class="aa" d="M809,308.053c-.053.139-.139.139-.192.11l-.754-.437c.053-.139.139-.139.192-.111Z" transform="translate(-807.656 -306.9)"/><path class="aa" d="M809.089,308c-.053.139-.139.139-.192.111l-.754-.432c.053-.144.139-.144.192-.115Z" transform="translate(-807.336 -307.086)"/><path class="aa" d="M809.169,307.954c-.052.144-.139.144-.192.11l-.749-.432c.053-.144.139-.144.192-.111Z" transform="translate(-807.013 -307.271)"/><path class="aa" d="M809.258,307.9c-.053.144-.144.144-.2.115l-.749-.437c.053-.139.139-.139.192-.11Z" transform="translate(-806.693 -307.455)"/><path class="ab" d="M808.916,308.1c-.053.144-.139.144-.192.11l-.749-.432c.053-.144.14-.144.192-.11Z" transform="translate(-807.975 -306.716)"/><path class="ab" d="M809,308.053c-.053.139-.139.139-.192.11l-.754-.437c.053-.139.139-.139.192-.111Z" transform="translate(-807.656 -306.9)"/><path class="ab" d="M809.089,308c-.053.139-.139.139-.192.111l-.754-.432c.053-.144.139-.144.192-.115Z" transform="translate(-807.336 -307.086)"/><path class="ab" d="M809.169,307.954c-.052.144-.139.144-.192.11l-.749-.432c.053-.144.139-.144.192-.111Z" transform="translate(-807.013 -307.271)"/><path class="ab" d="M809.258,307.9c-.053.144-.144.144-.2.115l-.749-.437c.053-.139.139-.139.192-.11Z" transform="translate(-806.693 -307.455)"/></g><path class="ac" d="M807.821,308.183a.153.153,0,0,1,0,.288.58.58,0,0,1-.5,0c-.139-.082-.139-.211,0-.288a.549.549,0,0,1,.5,0Z" transform="translate(-807.212 -304.921)"/><path class="ab" d="M808.2,307.959a.155.155,0,0,1,0,.293.569.569,0,0,1-.5,0,.155.155,0,0,1,0-.293.569.569,0,0,1,.5,0Z" transform="translate(-805.76 -305.758)"/></g></g><g transform="translate(883.695 414.654)"><rect class="ad" width="16.118" height="5.26" transform="translate(50.253 68.827) rotate(-29.999)"/><path class="ad" d="M802.266,297.027l53.986,31.012c0,2.435-1.681,3.4-3.75,2.209l-46.489-26.685a8.283,8.283,0,0,1-3.746-6.492Z" transform="translate(-802.265 -257.131)"/><path class="ae" d="M925.2,319.493l-53.838-30.774-69.1,39.894,53.985,31.015Z" transform="translate(-802.266 -288.719)"/><g transform="translate(24.158 12.123)"><path class="af" d="M815.1,300.854l3.071,1.772-3.8,2.193-3.07-1.772Z" transform="translate(-792.076 -254.703)"/><path class="af" d="M820.061,301.534l-3.8,2.193-3.07-1.773,3.8-2.193Z" transform="translate(-784.878 -258.859)"/><path class="af" d="M817.937,299.215l3.071,1.773-3.8,2.192-3.07-1.773Z" transform="translate(-781.279 -260.937)"/><path class="af" d="M818.884,298.668l3.07,1.772-3.8,2.193-3.07-1.772Z" transform="translate(-777.679 -263.015)"/><path class="af" d="M819.83,298.122l3.071,1.773-3.8,2.193-3.07-1.772Z" transform="translate(-774.08 -265.093)"/><path class="af" d="M824.794,298.8l-3.8,2.193-3.07-1.773,3.8-2.192Z" transform="translate(-766.882 -269.249)"/><path class="af" d="M822.67,296.482l3.07,1.773-3.8,2.192-3.069-1.773Z" transform="translate(-763.283 -271.327)"/><path class="af" d="M823.617,295.935l3.071,1.773-3.8,2.192-3.071-1.772Z" transform="translate(-759.684 -273.405)"/><path class="af" d="M820.443,296.3l-3.071-1.772,3.8-2.193,3.071,1.773Z" transform="translate(-768.986 -287.087)"/><path class="af" d="M821.389,295.755l-3.07-1.772,3.8-2.193,3.07,1.773Z" transform="translate(-765.387 -289.166)"/><path class="af" d="M819.266,293.436l3.8-2.193,3.071,1.773-3.8,2.193Z" transform="translate(-761.789 -291.244)"/><path class="af" d="M810.367,302.357l-3.071-1.772,3.8-2.193,3.071,1.772Z" transform="translate(-807.297 -264.064)"/><path class="af" d="M811.313,301.811l-3.07-1.773,3.8-2.193,3.07,1.773Z" transform="translate(-803.697 -266.142)"/><path class="af" d="M834.241,296.886l-6.889,3.977-1.454.84-.748.432-1.9,1.1-2.647,1.528-3.8,2.193-4.546,2.625-3.07-1.774,12.45-7.188.438-.254,9.092-5.249Z" transform="translate(-800.098 -276.532)"/><path class="af" d="M816.993,298.532l-3.07-1.773,3.8-2.192,3.071,1.773Z" transform="translate(-782.102 -278.609)"/><path class="af" d="M817.94,297.985l-3.07-1.773,3.8-2.193,3.07,1.772Z" transform="translate(-778.504 -280.687)"/><path class="af" d="M815.816,295.666l3.8-2.193,3.071,1.772-3.8,2.192Z" transform="translate(-774.905 -282.765)"/><path class="af" d="M818.168,294.989l3.8-2.193,3.07,1.773-3.8,2.193Z" transform="translate(-765.963 -285.342)"/><path class="af" d="M819.114,294.442l3.8-2.193,3.07,1.772-3.8,2.193Z" transform="translate(-762.364 -287.42)"/><path class="af" d="M820.06,293.895l3.8-2.192,3.071,1.772-3.8,2.193Z" transform="translate(-758.765 -289.498)"/><path class="af" d="M808.092,301.044l3.8-2.192,3.071,1.772-3.8,2.192Z" transform="translate(-804.273 -262.318)"/><path class="af" d="M815.906,300.078l-3.8,2.192-3.07-1.773,3.8-2.192Z" transform="translate(-800.674 -264.396)"/><path class="af" d="M816.853,299.531l-3.8,2.193-3.072-1.773,3.8-2.193Z" transform="translate(-797.075 -266.474)"/><path class="af" d="M817.8,298.985l-3.8,2.193-3.07-1.773,3.8-2.193Z" transform="translate(-793.476 -268.552)"/><path class="af" d="M818.746,298.438l-3.8,2.193-3.07-1.772,3.8-2.193Z" transform="translate(-789.877 -270.63)"/><path class="af" d="M819.692,297.891l-3.8,2.192-3.071-1.772,3.8-2.193Z" transform="translate(-786.278 -272.708)"/><path class="af" d="M820.639,297.345l-3.8,2.193-3.07-1.772,3.8-2.193Z" transform="translate(-782.678 -274.786)"/><path class="af" d="M821.586,296.8l-3.8,2.193-3.071-1.773,3.8-2.193Z" transform="translate(-779.08 -276.864)"/><path class="af" d="M822.532,296.252l-3.8,2.193-3.07-1.773,3.8-2.193Z" transform="translate(-775.48 -278.942)"/><path class="af" d="M818.963,295.448l3.8-2.193,3.07,1.773-3.8,2.193Z" transform="translate(-762.94 -283.596)"/><path class="af" d="M826.777,294.481l-3.8,2.193-3.07-1.772,3.8-2.193Z" transform="translate(-759.341 -285.674)"/><path class="af" d="M820.856,294.354l3.8-2.192,3.07,1.772-3.8,2.193Z" transform="translate(-755.742 -287.752)"/><path class="af" d="M808.887,301.5l3.8-2.192,3.07,1.773-3.8,2.192Z" transform="translate(-801.25 -260.572)"/><path class="af" d="M816.7,300.537l-3.8,2.192-3.07-1.773,3.8-2.192Z" transform="translate(-797.651 -262.65)"/><path class="af" d="M810.78,300.41l3.8-2.193,3.07,1.772-3.8,2.193Z" transform="translate(-794.052 -264.728)"/><path class="af" d="M811.727,299.864l3.8-2.193,3.071,1.773-3.8,2.193Z" transform="translate(-790.453 -266.807)"/><path class="af" d="M812.673,299.317l3.8-2.193,3.07,1.773-3.8,2.193Z" transform="translate(-786.854 -268.885)"/><path class="af" d="M813.62,298.77l3.8-2.193,3.071,1.773-3.8,2.192Z" transform="translate(-783.255 -270.963)"/><path class="af" d="M821.434,297.8l-3.8,2.193-3.07-1.773,3.8-2.192Z" transform="translate(-779.655 -273.04)"/><path class="af" d="M815.513,297.677l3.8-2.193,3.07,1.773-3.8,2.193Z" transform="translate(-776.056 -275.118)"/><path class="af" d="M824.076,300.1l-4.546,2.625-3.07-1.773,4.546-2.625-3.819-2.2,3.8-2.192,3.818,2.2,1.244.718,1.826,1.054-2.537,1.465Z" transform="translate(-772.457 -281.02)"/><path class="af" d="M822.828,297.679l-3.07-1.772,3.8-2.193,3.07,1.772Z" transform="translate(-759.916 -281.851)"/><path class="af" d="M824.5,293.167l3.069,1.773-3.8,2.193L820.7,295.36Z" transform="translate(-756.318 -283.929)"/><path class="af" d="M821.651,294.813l3.8-2.192,3.071,1.772-3.8,2.193Z" transform="translate(-752.719 -286.007)"/><path class="af" d="M809.682,301.962l3.8-2.193,3.07,1.773-3.8,2.193Z" transform="translate(-798.227 -258.827)"/><path class="af" d="M813.7,303.188l-3.07-1.772,3.8-2.192L817.5,301Z" transform="translate(-794.628 -260.905)"/><path class="af" d="M811.575,300.869l3.8-2.193,3.069,1.772-3.8,2.194Z" transform="translate(-791.029 -262.983)"/><path class="af" d="M816.319,298.13l3.071,1.772-3.8,2.193-3.07-1.773Z" transform="translate(-787.429 -265.061)"/><path class="af" d="M813.468,299.776l3.8-2.192,3.07,1.773-3.8,2.192Z" transform="translate(-783.831 -267.139)"/><path class="af" d="M814.415,299.229l3.8-2.192,3.071,1.772-3.8,2.193Z" transform="translate(-780.232 -269.217)"/><path class="af" d="M818.432,300.456l-3.07-1.772,3.8-2.193,3.07,1.773Z" transform="translate(-776.633 -271.295)"/><path class="af" d="M816.308,298.137l3.8-2.193,3.071,1.773-3.8,2.193Z" transform="translate(-773.033 -273.373)"/><path class="af" d="M821.8,297.044l1.385-.8,2.413-1.393,3.07,1.773-2.412,1.394-1.386.8-4.545,2.625-3.07-1.773Z" transform="translate(-769.434 -277.529)"/><path class="af" d="M828.216,296.405l-3.8,2.192-3.071-1.773,3.8-2.193Z" transform="translate(-753.87 -278.36)"/><path class="af" d="M826.093,294.086l3.071,1.773-3.8,2.193-3.07-1.773Z" transform="translate(-750.271 -280.438)"/><path class="af" d="M827.039,293.539l3.071,1.772-3.8,2.193-3.07-1.773Z" transform="translate(-746.672 -282.516)"/></g><path class="ag" d="M809.356,301.164l9.114,5.258a1.648,1.648,0,0,0,1.5,0l13.744-7.933a.458.458,0,0,0,0-.869l-9.109-5.258a1.65,1.65,0,0,0-1.5,0l-13.748,7.933A.46.46,0,0,0,809.356,301.164Z" transform="translate(-776.484 -275.555)"/></g><path class="j" d="M815.778,290.885a34.543,34.543,0,0,0-1.695,10.171l1.474,5.2,3.131,5.465c1.681,2.9,3.933,1.364,2.713-1.69l-2.233-4.759v-4.211l7.049,7.6L832.177,318c2.041,2.041,2.766,1.167,2.934-.927l2.041,2.569c1.753,2.185,3.938.163,3.174-1.585l.764.653c1.657,2.1,3.938.331,2.66-2.2l-.965-1.729c2.041,1.4,1.964-.922.163-3.832l-5.633-10.387c-1.148-2.348-9.345-10.713-13.22-12.245C820.84,286.99,818.1,288.013,815.778,290.885Z" transform="translate(126.36 122.223)"/><path class="j" d="M811.834,306.781c1.849,5.868,5.273,8.653,11.376,13.071l11.372,7.439c3.409,1.018,3.626-.442,2.622-2.843l4.7,3.237c3.179,1.94,5.734-.192,4.269-2.583l3.064,1.316c2.939.787,4.173-.893,1.311-4.159l-1.82-1.748c2.632,1.3,5.359,0,1.887-3.525a128.31,128.31,0,0,0-18.219-17.033c-5.075-2.483-8.9-3.285-14.723-3.938l-9.989-3.28-5.028,9.187Z" transform="translate(82.898 141.204)"/><path class="h" d="M797.319,270.4c-10.21,8.481-12.961,16.985-11.083,34.993,4.3,41.241,21.158,67.753,21.158,67.753,17.663,9.676,42.47,14.656,68.945,18.536-.327-5.244,1.143-9.182,5.834-10.766-23.756-11.371-49.745-27.286-59.4-26.536-.586-20.952-3.894-37.615-8.543-56.276C810.832,284.892,805.819,274.543,797.319,270.4Z" transform="translate(18.393 56.299)"/><g transform="translate(937.73 391.993)"><path class="d" d="M827.907,338.331,842.774,284c2.032,1.82,3.208,4.879,2.661,6.867L832.551,338c-.548,1.988-2.613,2.151-4.61.365Z" transform="translate(-758.809 -284)"/><path class="d" d="M825.559,323.867l-11.285,55.412,69.051-39.867L894.61,284Z" transform="translate(-810.645 -283.998)"/><path class="ad" d="M813.518,346.639l14.868-54.331c2.031,1.82,3.208,4.879,2.655,6.867L818.162,346.3c-.548,1.988-2.612,2.156-4.61.37Z" transform="translate(-813.518 -252.412)"/><path class="af" d="M822.733,299.837c-.385,2.348,1.07,3.3,3.256,2.127a10.123,10.123,0,0,0,4.653-6.372c.384-2.348-1.071-3.3-3.256-2.127A10.12,10.12,0,0,0,822.733,299.837Z" transform="translate(-778.716 -249.923)"/></g><g transform="translate(1048.907 482.38)"><path class="ah" d="M856.283,306.389l-11.86,6.985-.654.386-1.378.808-2.17-3.888,1.443-.8.593-.329,11.966-6.668Z" transform="translate(-823.165 -302.609)"/><path class="ai" d="M846.541,304.452c0,.571-2.036,1.762-2.536,1.474a1.979,1.979,0,0,1-.9-1.556c0-.571,2.036-1.762,2.536-1.474A1.994,1.994,0,0,1,846.541,304.452Z" transform="translate(-812.194 -302.71)"/><path class="ai" d="M843.275,307.43c0,1-.706,1.412-1.575.908a3.472,3.472,0,0,1-1.58-2.728c0-1.008.706-1.412,1.58-.912A3.488,3.488,0,0,1,843.275,307.43Z" transform="translate(-823.551 -296.506)"/><path class="n" d="M843.255,307.614a2.164,2.164,0,0,1-.053.48l-.653.384a1.109,1.109,0,0,0,.3-.864,3.585,3.585,0,0,0-1.628-2.814,1.361,1.361,0,0,0-.668-.211c-.11,0,.485-.322.485-.322a1.97,1.97,0,0,1,.389.178A4.156,4.156,0,0,1,843.255,307.614Z" transform="translate(-821.947 -297.329)"/><path class="ah" d="M845.94,305.542c0,.922-.643,1.292-1.44.831a3.172,3.172,0,0,1-1.441-2.492c0-.917.643-1.292,1.441-.831A3.172,3.172,0,0,1,845.94,305.542Z" transform="translate(-812.377 -302.71)"/><path class="aj" d="M838.575,308.235c0,.548-.384.768-.855.495a1.884,1.884,0,0,1-.855-1.484c0-.543.379-.763.855-.495A1.906,1.906,0,0,1,838.575,308.235Z" transform="translate(-835.927 -288.317)"/><path class="ah" d="M855.115,306.874a2.732,2.732,0,0,0-1.229-2.132.844.844,0,0,0-.9-.062,111.281,111.281,0,0,0-16.068,9.854l1.244,2.079A113.932,113.932,0,0,0,854.7,307.7.9.9,0,0,0,855.115,306.874Z" transform="translate(-835.737 -296.153)"/><path class="ai" d="M851.595,303.673l-9.283,5.354a1,1,0,0,1-.9,0l-.283-.163c-.148-.087-.226-.139-.187-.528.187.01,9.465-5.35,9.465-5.35a1,1,0,0,1,.9,0l.288.163c.192.019.187.25.182.279A.325.325,0,0,1,851.595,303.673Z" transform="translate(-820.476 -302.608)"/><path class="ak" d="M851.587,303.613l-9.283,5.359a1,1,0,0,1-.9,0l-.283-.163a.277.277,0,0,1,0-.524l9.278-5.359a1.028,1.028,0,0,1,.9,0l.288.168A.273.273,0,0,1,851.587,303.613Z" transform="translate(-820.468 -302.822)"/><path class="f" d="M838.505,307.4a.5.5,0,0,0-.178-.567,12.844,12.844,0,0,0-1.633.821.482.482,0,0,0,.168.576,12.23,12.23,0,0,0,1.628-.816Z" transform="translate(-836.67 -287.584)"/><g transform="translate(4.613 4.12)"><path class="al" d="M839.383,309.7l-.761-1.961.761-1.083,1.522.879.761,1.961-.761,1.082Z" transform="translate(-833.857 -292.364)"/><path class="al" d="M844.548,306.724l-.761-1.961.761-1.083,1.522.879.76,1.96-.761,1.083Z" transform="translate(-814.223 -303.68)"/><path class="am" d="M865.1,304.56l-24.8,14.292-1.522-.879,24.8-14.293Z" transform="translate(-833.255 -303.68)"/><path class="an" d="M864.658,305.824l-24.8,14.293-.761-1.961,24.8-14.292Z" transform="translate(-832.05 -302.984)"/><path class="an" d="M863.9,305.355l-24.8,14.292.761-1.082,24.8-14.293Z" transform="translate(-832.05 -301.432)"/><path class="n" d="M843.454,307.536l-5.5,3.83,3.98-4.709Z" transform="translate(-836.406 -292.364)"/><path class="af" d="M844.215,308.8l-6.263,1.869,5.5-3.83Z" transform="translate(-836.406 -291.668)"/><path class="al" d="M843.454,308.33l-5.5.787,6.263-1.869Z" transform="translate(-836.406 -290.116)"/><path class="f" d="M838.047,309.534a.417.417,0,0,1-.206-.778l2.262-1.3a.361.361,0,0,1,.427.2c.111.2.139.4-.015.519l-2.262,1.306A.408.408,0,0,1,838.047,309.534Z" transform="translate(-837.63 -289.41)"/><path class="n" d="M838.781,307l1.522.879C841.249,307.171,840.678,305.9,838.781,307Z" transform="translate(-833.255 -292.703)"/><path class="af" d="M839.1,307.023l.759,1.959C841.586,307.983,840.62,306.144,839.1,307.023Z" transform="translate(-832.05 -291.85)"/><path class="al" d="M839.857,307.4l-.759,1.08C840.712,307.556,840.99,306.85,839.857,307.4Z" transform="translate(-832.05 -290.27)"/></g><g transform="translate(20.915 14.735)"><path class="x" d="M849.621,306.575c0,.24-.528-.067-.528-.067a1.964,1.964,0,0,0-1.777,0l-1.037.6-2.358,1.359h-2.9v1.964a.632.632,0,0,0,.37.523l2.588,1.493a1.964,1.964,0,0,0,1.777,0l3.2-1.844,2.723-1.575a.588.588,0,0,0,.36-.562l.01-1.892Z" transform="translate(-841.025 -304.355)"/><path class="n" d="M851.679,308.62l-2.756,1.59-3.165,1.829a1.963,1.963,0,0,1-1.777,0l-2.588-1.493a.54.54,0,0,1,0-1.023l3.222-1.863,2.7-1.556a1.963,1.963,0,0,1,1.777,0l2.588,1.493A.54.54,0,0,1,851.679,308.62Z" transform="translate(-841.023 -305.891)"/><path class="ai" d="M845.77,306.726v1.892a.615.615,0,0,1-.37.562l-2.723,1.575v-1.911l2.291-2.118.5-.471A.585.585,0,0,1,845.77,306.726Z" transform="translate(-834.744 -304.506)"/><path class="ah" d="M849.207,308.111a.624.624,0,0,1-.37.509l-2.723,1.609-2.679-1.585-1.662-.984,2.7-1.556a1.964,1.964,0,0,1,1.777,0l2.588,1.493C849.106,307.774,849.207,307.942,849.207,308.111Z" transform="translate(-838.181 -305.891)"/></g></g><g transform="translate(1032.729 520.973)"><g transform="translate(0.008 0.306)"><path class="n" d="M853.661,316.988c4.653,2.689,4.653,7.05,0,9.739s-12.207,2.684-16.865,0-4.658-7.05,0-9.739S849,314.3,853.661,316.988Z" transform="translate(-833.303 -295.53)"/><rect class="n" width="23.847" height="19.759" transform="translate(0.003 6.566)"/><path class="ao" d="M853.1,312.879c4.653,2.689,5.109,6.79.456,9.48s-12.207,2.684-16.865,0-4.375-6.675.283-9.359A17.14,17.14,0,0,1,853.1,312.879Z" transform="translate(-833.193 -310.923)"/><path class="v" d="M840.943,329.625a6.883,6.883,0,0,1-2.031-.317,1.349,1.349,0,1,1,.807-2.574,3.384,3.384,0,0,0,3.131-.427c1.513-1.177,2.233-3.981,2.027-7.895-.135-2.54-1.643-2.656-2.07-2.675a1.863,1.863,0,0,0-1.321.908,13.473,13.473,0,0,0-1.181,3.016,1.347,1.347,0,0,1-2.593-.73,15.864,15.864,0,0,1,1.537-3.789,4.471,4.471,0,0,1,3.472-2.094c1.508-.034,4.62.975,4.845,5.22.264,4.965-.768,8.384-3.064,10.166A5.746,5.746,0,0,1,840.943,329.625Z" transform="translate(-816.733 -302.846)"/></g><path class="ao" d="M853.663,312.857a18.8,18.8,0,0,0-16.865,0c-4.663,2.689-4.663,7.045,0,9.734a18.559,18.559,0,0,0,16.865,0C858.321,319.9,858.321,315.546,853.663,312.857Zm-.581,8.764a5.34,5.34,0,0,1-.5.25,17.6,17.6,0,0,1-14.7,0,5.325,5.325,0,0,1-.5-.25c-1.887-1.081-2.939-2.468-2.939-3.885s1.052-2.8,2.939-3.88a17.474,17.474,0,0,1,15.7,0c1.883,1.081,2.939,2.468,2.939,3.88S854.965,320.54,853.082,321.621Z" transform="translate(-833.301 -310.859)"/><path class="d" d="M848.958,314.535a17.605,17.605,0,0,1-14.7,0A16.345,16.345,0,0,1,848.958,314.535Z" transform="translate(-829.676 -303.524)"/></g></g></svg>