<svg xmlns="http://www.w3.org/2000/svg" width="598.258" height="109.804" viewBox="0 0 598.258 109.804"><defs><style>.a{fill:#fff;}</style></defs><g transform="translate(-717.88 -284.632)"><g transform="translate(870.823 284.632)"><path class="a" d="M999.447,367.435c-.519.56-.773.8-.984,1.066a26.938,26.938,0,0,1-19.447,10.671c-12.044,1.068-22.5-2.446-30.661-11.68A36.606,36.606,0,0,1,939.8,348.94a46.1,46.1,0,0,1,2.8-26.357c8.284-19.353,27.573-23.464,40.961-19.6a28.214,28.214,0,0,1,13.618,8.771c.451.517.908,1.029,1.75,1.979.016-1.743.03-2.979.037-4.216.007-1.423-.044-2.848.023-4.268a1.63,1.63,0,0,1,1.871-1.81q4.693-.067,9.39,0c1.26.02,1.7.558,1.782,1.881.037.567.011,1.137.011,1.707q0,27,0,53.994c0,.5,0,.995,0,1.494.018,2.9.581,3.466,3.484,3.539,3.441.089,3.443.089,3.445,3.441,0,1.921.02,3.843-.005,5.763-.029,2.047-.345,2.37-2.344,2.4-1.848.023-3.7.02-5.548,0a11.194,11.194,0,0,1-11.259-8.647C999.708,368.621,999.63,368.216,999.447,367.435Zm-.059-27.062a29.849,29.849,0,0,0-3.349-14.508c-4.193-7.812-10.814-11.964-19.639-12.188-8.945-.226-15.72,3.766-20.264,11.47a28.638,28.638,0,0,0-3.7,11.927c-.648,6.583.151,12.957,3.463,18.785,4.326,7.611,10.955,11.566,19.726,11.685,8.81.121,15.443-3.767,19.893-11.328A29.747,29.747,0,0,0,999.389,340.373Z" transform="translate(-699.059 -271.399)"/><path class="a" d="M817.379,325.342a6.064,6.064,0,0,1,.432-.727c4.738-6.034,11.157-8.851,18.61-9.564a28.765,28.765,0,0,1,10.992.975c10.829,3.214,16.973,10.706,19.28,21.519a38.711,38.711,0,0,1,.735,7.84c.069,14.158.034,28.318.034,42.476a11.363,11.363,0,0,1-.02,1.279c-.128,1.174-.588,1.714-1.734,1.734q-4.7.077-9.391,0c-1.249-.021-1.709-.577-1.8-1.881-.041-.565-.013-1.137-.013-1.706,0-13.8.027-27.607-.032-41.41a23.839,23.839,0,0,0-.687-5.9A17.128,17.128,0,0,0,839,327.309a20.138,20.138,0,0,0-12.753,2.534,17.9,17.9,0,0,0-9.4,16.167c-.094,13.092-.028,26.184-.03,39.276,0,1.208.032,2.42-.013,3.628-.053,1.452-.494,1.947-1.906,1.97q-4.482.069-8.965,0c-1.452-.02-1.864-.478-1.953-1.926-.036-.567-.011-1.139-.011-1.707q0-49.521,0-99.041c0-3.573,0-3.573,3.525-3.575,2.207,0,4.411-.009,6.618,0,2.411.012,2.7.29,2.7,2.7q.011,17.717,0,35.432v2.308Z" transform="translate(-803.965 -284.632)"/><path class="a" d="M885.271,379.458c-13.314-.322-24.059-4.911-31.8-15.45-5.428-7.391-7.521-15.848-7.263-24.928a37.782,37.782,0,0,1,3.312-14.9c5.858-12.7,15.833-19.987,29.6-22.036a38.681,38.681,0,0,1,24.051,3.806c11.735,6.1,18.211,15.976,20.025,28.959a39.061,39.061,0,0,1-4.326,24.791c-6.112,11.108-15.651,17.381-28.126,19.25C888.781,379.248,886.784,379.323,885.271,379.458Zm-25.959-38.987c.066.993.124,1.986.2,2.979.776,10.786,7.686,22.3,22.537,23.867,10.48,1.107,21.162-3.637,25.945-14.712a30.741,30.741,0,0,0,2.146-16.285c-1.238-10-8.062-20.989-22.546-22.537-9.375-1-19.11,2.754-24.523,12.179A29.614,29.614,0,0,0,859.312,340.471Z" transform="translate(-771.173 -271.405)"/><path class="a" d="M907.07,340.575a31.429,31.429,0,0,0,4.312,15.3,24.592,24.592,0,0,0,30.226,9.766,20.147,20.147,0,0,0,12.007-13.821c.64-2.313.908-2.487,3.28-1.947,2.425.551,4.849,1.1,7.27,1.67,2.53.593,2.752.995,1.972,3.544a32.755,32.755,0,0,1-14.465,18.865c-19.593,12.124-51.242,4.276-56.938-25.4a39.863,39.863,0,0,1,3.992-27.305c6.021-11.04,15.407-17.443,27.878-19.168a36.358,36.358,0,0,1,25.683,5.559,32.639,32.639,0,0,1,13.684,18.7c.633,2.15.364,2.6-1.812,3.116-2.558.606-5.122,1.189-7.686,1.771-2.2.5-2.519.3-3.143-1.912-2.4-8.51-8.057-13.638-16.629-15.238-13.158-2.455-24.855,5.11-28.268,18.108A84.875,84.875,0,0,0,907.07,340.575Z" transform="translate(-734.113 -271.39)"/><path class="a" d="M1046.391,323.573c-3.281.956-6.4,1.914-9.539,2.759-1.315.354-1.892-.176-2.253-1.81-1.2-5.445-4.593-8.841-9.818-10.514a16.358,16.358,0,0,0-2.692-.647,22.463,22.463,0,0,0-10.338.68,12.841,12.841,0,0,0-4.905,2.919c-3.1,2.953-3.745,9.663,1.652,12.566a33.252,33.252,0,0,0,9.1,2.921c4.172.879,8.395,1.562,12.511,2.651a40.157,40.157,0,0,1,8.13,3.125c5.836,3.022,8.844,8.078,9.454,14.542,1.031,10.914-4.088,19.634-14.2,23.793a37.067,37.067,0,0,1-27.511.6c-9.034-3.289-14.322-9.937-16.077-19.387a8.127,8.127,0,0,1-.114-1.059,6.176,6.176,0,0,1,.078-.8c1.045-.281,2.121-.579,3.2-.858,2.066-.531,4.125-1.082,6.2-1.563,1.64-.38,2.127-.02,2.51,1.675.064.277.135.554.187.833,1.041,5.689,4.461,9.26,9.917,10.861a24.986,24.986,0,0,0,14.316.071,16.707,16.707,0,0,0,4.934-2.423,10.259,10.259,0,0,0,3.669-11.248,9.1,9.1,0,0,0-4.994-5.538,38.489,38.489,0,0,0-9.537-2.979c-3.818-.837-7.661-1.581-11.442-2.56a38.049,38.049,0,0,1-6.4-2.311c-8.254-3.811-11.193-11.085-10.283-19.451.675-6.222,3.994-10.838,9.21-14.151a30.422,30.422,0,0,1,13.476-4.363c7.117-.725,13.925.3,20.145,4.019A22.626,22.626,0,0,1,1046.391,323.573Z" transform="translate(-659.646 -271.384)"/><path class="a" d="M1040.753,323.035c-1.469,0-2.6,0-3.72,0-2.633,0-5.266.032-7.9-.023-1.457-.03-1.924-.485-1.961-1.937q-.091-3.624,0-7.256c.041-1.54.517-1.951,2.15-1.967,3.273-.034,6.545-.005,9.818-.018.693,0,1.384-.069,2.338-.123V309.3c0-5.122.053-10.246-.021-15.368-.041-2.9.519-3.171,3.2-3.093,1.99.059,3.985.059,5.975,0,2.575-.076,3.15.233,3.1,3.2-.082,5.051-.023,10.1-.023,15.155v2.537c.929.041,1.684.1,2.439.107,5.692.007,11.383,0,17.075.007,2.45,0,2.713.27,2.729,2.67.012,1.636,0,3.273,0,4.909,0,3.608,0,3.61-3.511,3.612q-8.11,0-16.221.005c-.764,0-1.528.066-2.516.112v2.263c0,12.879-.014,25.756.021,38.635a23.439,23.439,0,0,0,.458,4.649,6.657,6.657,0,0,0,5.774,5.517,22.436,22.436,0,0,0,3.6.364c3.057.05,6.119,0,9.176.028,1.805.018,2.247.466,2.272,2.29.034,2.347.037,4.7,0,7.043-.028,1.6-.49,2.151-1.988,2.125-5.044-.094-10.093-.162-15.127-.471a18.145,18.145,0,0,1-5.346-1.373c-7.093-2.766-10.6-8.272-11.486-15.615a50.685,50.685,0,0,1-.3-5.964q-.037-18.356-.012-36.713Z" transform="translate(-630.646 -279.817)"/></g><g transform="translate(717.88 285.469)"><path class="a" d="M717.88,348.78c.219-34.2,24.281-60.653,56.1-63.432a61.251,61.251,0,0,1,66.2,52.306c2.853,20.522-3.315,38.189-17.822,52.957a21.823,21.823,0,0,1-2.368,2.146,6.038,6.038,0,0,1-8.05-8.961c1.6-1.713,3.413-3.248,4.886-5.062,12.35-15.2,15.549-32.214,8.272-50.379-7.234-18.06-21.146-28.508-40.508-30.775-27.289-3.194-52.027,17.26-54.323,44.606-1.325,15.777,3.889,29.221,15.228,40.282.407.4.833.776,1.222,1.19a6.078,6.078,0,0,1,.169,8.476,5.925,5.925,0,0,1-8.444.322,55.153,55.153,0,0,1-5.271-5.279C723.07,375.527,718.083,361.929,717.88,348.78Z" transform="translate(-717.88 -285.103)"/><path class="a" d="M760.642,323.277a18.371,18.371,0,1,1-18.47,18.141A18.392,18.392,0,0,1,760.642,323.277Z" transform="translate(-699.015 -255.456)"/><path class="a" d="M796.325,329.809c-.043,3.466-2.287,5.994-5.3,6.316a5.961,5.961,0,0,1-6.589-4.511c-.178-.688-.265-1.4-.405-2.095a18.558,18.558,0,0,0-36.473.423c-.087.489-.155.984-.274,1.466a6.05,6.05,0,0,1-11.905-2.12,29.656,29.656,0,0,1,2.388-8.6,30.717,30.717,0,0,1,58.308,7.139C796.212,328.594,796.272,329.376,796.325,329.809Z" transform="translate(-704.325 -271.637)"/></g></g></svg>