<svg xmlns="http://www.w3.org/2000/svg" width="158.005" height="29" viewBox="0 0 158.005 29"><defs><style>.a{fill:#e9e6c9;}</style></defs><g transform="translate(-717.88 -284.632)"><g transform="translate(758.274 284.632)"><path class="a" d="M954.995,319.039c-.137.148-.2.21-.26.282a7.115,7.115,0,0,1-5.136,2.818,9.153,9.153,0,0,1-8.1-3.085,9.668,9.668,0,0,1-2.259-4.9,12.176,12.176,0,0,1,.74-6.961,8.941,8.941,0,0,1,10.818-5.176,7.452,7.452,0,0,1,3.6,2.317c.119.137.24.272.462.523,0-.46.008-.787.01-1.113,0-.376-.012-.752.006-1.127a.431.431,0,0,1,.494-.478q1.239-.018,2.48,0c.333.005.449.147.471.5.01.15,0,.3,0,.451q0,7.13,0,14.26c0,.131,0,.263,0,.395,0,.765.153.915.92.935.909.023.909.023.91.909,0,.507.005,1.015,0,1.522-.008.541-.091.626-.619.633-.488.006-.977.005-1.465,0a2.956,2.956,0,0,1-2.974-2.284C955.063,319.352,955.043,319.245,954.995,319.039Zm-.016-7.147a7.882,7.882,0,0,0-.885-3.832,6.006,6.006,0,0,0-10.539-.19,7.563,7.563,0,0,0-.977,3.15,8.167,8.167,0,0,0,.915,4.961,5.744,5.744,0,0,0,5.21,3.086,5.661,5.661,0,0,0,5.254-2.992A7.856,7.856,0,0,0,954.979,311.892Z" transform="translate(-875.66 -293.675)"/><path class="a" d="M807.508,295.384a1.6,1.6,0,0,1,.114-.192,6.748,6.748,0,0,1,4.915-2.526,7.6,7.6,0,0,1,2.9.258,7,7,0,0,1,5.092,5.683,10.225,10.225,0,0,1,.194,2.071c.018,3.739.009,7.479.009,11.218a3.009,3.009,0,0,1-.005.338c-.034.31-.155.453-.458.458q-1.24.02-2.48,0c-.33-.006-.451-.152-.475-.5-.011-.149,0-.3,0-.45,0-3.646.007-7.291-.008-10.937a6.3,6.3,0,0,0-.182-1.559,4.524,4.524,0,0,0-3.9-3.346,5.318,5.318,0,0,0-3.368.669,4.728,4.728,0,0,0-2.482,4.27c-.025,3.458-.007,6.915-.008,10.373,0,.319.008.639,0,.958-.014.383-.13.514-.5.52q-1.184.018-2.368,0c-.383-.005-.492-.126-.516-.509-.009-.15,0-.3,0-.451q0-13.079,0-26.158c0-.944,0-.944.931-.944.583,0,1.165,0,1.748,0,.637,0,.713.076.713.712q0,4.679,0,9.358v.61Z" transform="translate(-803.965 -284.632)"/><path class="a" d="M856.51,322.209a10.038,10.038,0,0,1-8.4-4.08,10.3,10.3,0,0,1-1.918-6.584,9.978,9.978,0,0,1,.875-3.934,9.694,9.694,0,0,1,7.818-5.82,10.216,10.216,0,0,1,6.352,1.005,9.638,9.638,0,0,1,5.289,7.648,10.316,10.316,0,0,1-1.143,6.548,9.672,9.672,0,0,1-7.428,5.084C857.437,322.153,856.91,322.173,856.51,322.209Zm-6.856-10.3c.017.262.033.525.052.787a6.709,6.709,0,0,0,12.8,2.418,8.119,8.119,0,0,0,.567-4.3,6.563,6.563,0,0,0-5.954-5.952,6.491,6.491,0,0,0-6.477,3.217A7.821,7.821,0,0,0,849.654,311.912Z" transform="translate(-826.376 -293.671)"/><path class="a" d="M897.382,311.954A8.3,8.3,0,0,0,898.521,316a6.5,6.5,0,0,0,7.983,2.579,5.321,5.321,0,0,0,3.171-3.65c.169-.611.24-.657.866-.514s1.281.291,1.92.441c.668.157.727.263.521.936a8.651,8.651,0,0,1-3.82,4.982,9.965,9.965,0,0,1-15.038-6.707,10.528,10.528,0,0,1,1.054-7.212,9.455,9.455,0,0,1,7.363-5.062,9.6,9.6,0,0,1,6.783,1.468,8.62,8.62,0,0,1,3.614,4.939c.167.568.1.687-.479.823-.676.16-1.353.314-2.03.468-.582.132-.665.078-.83-.5a5.293,5.293,0,0,0-4.392-4.025,6.336,6.336,0,0,0-7.466,4.782A22.427,22.427,0,0,0,897.382,311.954Z" transform="translate(-851.703 -293.682)"/><path class="a" d="M1004.737,307.469c-.867.252-1.689.505-2.519.729-.347.093-.5-.046-.595-.478a3.576,3.576,0,0,0-2.593-2.777,4.321,4.321,0,0,0-.711-.171,5.933,5.933,0,0,0-2.73.18,3.392,3.392,0,0,0-1.3.771,2.09,2.09,0,0,0,.436,3.319,8.781,8.781,0,0,0,2.4.771c1.1.232,2.217.412,3.3.7a10.607,10.607,0,0,1,2.147.825,4.542,4.542,0,0,1,2.5,3.841,5.832,5.832,0,0,1-3.751,6.284,9.79,9.79,0,0,1-7.266.159,6.328,6.328,0,0,1-4.246-5.12,2.148,2.148,0,0,1-.03-.28,1.631,1.631,0,0,1,.021-.211c.276-.074.56-.153.846-.227.546-.14,1.09-.286,1.638-.413.433-.1.562-.005.663.443.017.073.036.146.049.22a3.463,3.463,0,0,0,2.619,2.868,6.6,6.6,0,0,0,3.781.019,4.414,4.414,0,0,0,1.3-.64,2.71,2.71,0,0,0,.969-2.971,2.4,2.4,0,0,0-1.319-1.463,10.167,10.167,0,0,0-2.519-.787c-1.008-.221-2.023-.418-3.022-.676a10.049,10.049,0,0,1-1.691-.61,4.672,4.672,0,0,1-2.716-5.137,4.921,4.921,0,0,1,2.432-3.737,8.035,8.035,0,0,1,3.559-1.152,8.413,8.413,0,0,1,5.321,1.061A5.976,5.976,0,0,1,1004.737,307.469Z" transform="translate(-902.594 -293.686)"/><path class="a" d="M1030.726,299.336h-.982c-.7,0-1.391.008-2.086-.006-.385-.008-.508-.128-.518-.511q-.024-.957,0-1.916c.011-.407.136-.515.568-.519.864-.009,1.729,0,2.593,0,.183,0,.365-.018.618-.032v-.636c0-1.353.014-2.706-.006-4.059-.011-.765.137-.838.844-.817q.788.023,1.578,0c.68-.02.832.061.82.844-.021,1.334-.006,2.669-.006,4v.67c.245.011.445.028.644.028,1.5,0,3.006,0,4.51,0,.647,0,.716.071.721.705,0,.432,0,.864,0,1.3,0,.953,0,.953-.927.954q-2.142,0-4.284,0c-.2,0-.4.017-.665.03v.6c0,3.4,0,6.8.006,10.2a6.19,6.19,0,0,0,.121,1.228,1.758,1.758,0,0,0,1.525,1.457,5.924,5.924,0,0,0,.95.1c.807.013,1.616,0,2.424.007.477,0,.594.123.6.6.009.62.01,1.24,0,1.86-.007.423-.129.568-.525.561-1.332-.025-2.666-.043-3.995-.124a4.791,4.791,0,0,1-1.412-.363,4.673,4.673,0,0,1-3.034-4.124,13.4,13.4,0,0,1-.078-1.575q-.01-4.848,0-9.7Z" transform="translate(-922.414 -287.922)"/></g><g transform="translate(717.88 284.853)"><path class="a" d="M717.88,301.921c.058-9.034,6.413-16.019,14.817-16.753a16.177,16.177,0,0,1,17.484,13.815,15.934,15.934,0,0,1-4.707,13.986,5.769,5.769,0,0,1-.625.567,1.595,1.595,0,0,1-2.126-2.367c.423-.452.9-.858,1.29-1.337,3.262-4.015,4.107-8.508,2.185-13.305a12.428,12.428,0,0,0-10.7-8.128,12.976,12.976,0,0,0-14.347,11.781,12.751,12.751,0,0,0,4.022,10.639c.107.1.22.205.323.314a1.605,1.605,0,0,1,.045,2.239,1.565,1.565,0,0,1-2.23.085,14.563,14.563,0,0,1-1.392-1.394A15.88,15.88,0,0,1,717.88,301.921Z" transform="translate(-717.88 -285.103)"/><path class="a" d="M747.049,323.277a4.852,4.852,0,1,1-4.878,4.791A4.858,4.858,0,0,1,747.049,323.277Z" transform="translate(-730.773 -305.365)"/><path class="a" d="M751.442,309.67a1.6,1.6,0,0,1-1.4,1.668,1.574,1.574,0,0,1-1.74-1.191c-.047-.182-.07-.369-.107-.553a4.9,4.9,0,0,0-9.633.112c-.023.129-.041.26-.072.387a1.6,1.6,0,0,1-3.144-.56,7.831,7.831,0,0,1,.631-2.272,8.113,8.113,0,0,1,15.4,1.885C751.412,309.349,751.428,309.556,751.442,309.67Z" transform="translate(-727.144 -294.306)"/></g></g></svg>